<?xml version="1.0" encoding="UTF-8" standalone="no"?>
<!-- Created with Inkscape (http://www.inkscape.org/) -->

<svg
   width="256"
   height="256"
   viewBox="0 0 67.733332 67.733333"
   version="1.1"
   id="svg1"
   xml:space="preserve"
   inkscape:export-filename="JoinFS-EuroScope-bridge-icon.svg"
   inkscape:export-xdpi="192"
   inkscape:export-ydpi="192"
   inkscape:version="1.4.4 (dcaf3e7, 2026-05-05)"
   sodipodi:docname="JoinFS-EuroScope-bridge-icon.svg"
   xmlns:inkscape="http://www.inkscape.org/namespaces/inkscape"
   xmlns:sodipodi="http://sodipodi.sourceforge.net/DTD/sodipodi-0.dtd"
   xmlns="http://www.w3.org/2000/svg"
   xmlns:svg="http://www.w3.org/2000/svg"><sodipodi:namedview
     id="namedview1"
     pagecolor="#505050"
     bordercolor="#eeeeee"
     borderopacity="1"
     inkscape:showpageshadow="0"
     inkscape:pageopacity="0"
     inkscape:pagecheckerboard="0"
     inkscape:deskcolor="#d1d1d1"
     inkscape:document-units="mm"
     inkscape:zoom="0.98082912"
     inkscape:cx="188.10616"
     inkscape:cy="340.01845"
     inkscape:window-width="2560"
     inkscape:window-height="1351"
     inkscape:window-x="2551"
     inkscape:window-y="290"
     inkscape:window-maximized="1"
     inkscape:current-layer="layer1" /><defs
     id="defs1" /><g
     inkscape:label="Ebene 1"
     inkscape:groupmode="layer"
     id="layer1"><g
       id="g4"
       transform="matrix(1.1113799,0,0,1.1113799,-10.573691,-0.25603161)"><rect
         style="fill:#4d4d4d;stroke:#ffd28a;stroke-width:0.0609367"
         id="rect6"
         width="123.45773"
         height="69.444939"
         x="-16.214956"
         y="-0.038270205" /><path
         style="fill:#26b428;stroke-width:0.937488"
         d="m -0.20403105,64.246495 c -0.15914505,-0.291727 -0.29848272,-0.565408 -0.30963979,-0.608176 -0.0111563,-0.04275 0.0756457,-0.121752 0.19290293,-0.175535 0.1172534,-0.05381 0.25659129,-0.122417 0.30963901,-0.152529 0.50470081,-0.286524 0.65023813,-0.31913 0.77161079,-0.172883 0.10249468,0.123496 0.34700901,0.124217 0.44899911,9.38e-4 0.043415,-0.05231 0.1554682,-0.134679 0.2490023,-0.183043 0.2229147,-0.115246 0.8023239,-0.432895 1.5203801,-0.833521 0.318289,-0.177587 0.69445,-0.387191 0.8359113,-0.465791 0.1414621,-0.07856 0.5320905,-0.295786 0.8680624,-0.482646 0.335973,-0.186869 0.7989387,-0.440385 1.0288144,-0.563383 0.2298765,-0.122999 0.5853444,-0.323583 0.7899304,-0.445756 0.204585,-0.122173 0.4128543,-0.206435 0.4628195,-0.187263 0.049969,0.01922 0.1357697,0.121732 0.1906774,0.227913 l 0.099832,0.193056 -0.4018998,0.222579 c -0.2210444,0.122427 -1.4146381,0.783879 -2.6524304,1.469904 -2.3570761,1.30637 -2.3539468,1.304663 -2.7649393,1.504188 -0.2360461,0.11459 -0.2557502,0.143755 -0.239542,0.354531 0.015609,0.203022 -0.010669,0.248423 -0.22649032,0.39125 -0.28185641,0.186523 -0.75916954,0.436354 -0.8334991,0.43626 -0.0279365,-3.7e-5 -0.18099686,-0.23876 -0.34014102,-0.530487 z M 42.396579,62.967837 c -0.167393,-0.452214 -0.354916,-1.06506 -0.354916,-1.159896 0,-0.07332 0.04686,-0.117345 0.124806,-0.117345 0.06864,0 0.140747,-0.02579 0.160224,-0.05728 0.01947,-0.0315 -0.123192,-0.530655 -0.317049,-1.109197 -0.193855,-0.578533 -0.352764,-1.115282 -0.353126,-1.192766 -3.63e-4,-0.07753 -0.02585,-0.156457 -0.05665,-0.175488 -0.0308,-0.01903 -0.07394,-0.12433 -0.09587,-0.233979 -0.02193,-0.109655 -0.08154,-0.291107 -0.132443,-0.403221 -0.141089,-0.310683 -1.130311,-3.34637 -1.130311,-3.468646 0,-0.111518 0.376787,-0.257875 0.464841,-0.180561 0.04316,0.03788 1.186157,3.435 1.239256,3.683181 0.04754,0.222203 0.254775,0.856358 0.290007,0.887444 0.02004,0.01772 0.178535,0.473637 0.352221,1.013236 l 0.315789,0.98109 0.202286,-0.03797 0.202286,-0.03797 0.207136,0.624666 c 0.113925,0.343561 0.183474,0.646839 0.154555,0.67395 -0.02892,0.02709 -0.269595,0.111351 -0.534836,0.187207 -0.265242,0.07584 -0.532543,0.154414 -0.594002,0.17456 -0.06386,0.0209 -0.125651,-9.28e-4 -0.144198,-0.051 z m 6.30713,-13.461602 -0.432743,-0.481606 0.470125,-0.44899 c 0.258569,-0.246954 0.501809,-0.449789 0.540534,-0.450764 0.03873,-9.37e-4 0.121858,0.05513 0.184741,0.124564 0.125556,0.138739 -0.01681,0.240936 1.54082,-1.106028 0.174378,-0.150795 0.521603,-0.466597 0.771611,-0.701775 0.250009,-0.235177 0.657108,-0.601594 0.904666,-0.814254 0.247558,-0.212659 0.497866,-0.439803 0.556239,-0.504762 0.05838,-0.06496 0.194869,-0.190441 0.303326,-0.278855 0.108451,-0.08841 0.389313,-0.334365 0.624129,-0.546565 0.234815,-0.21219 0.485962,-0.408144 0.558103,-0.435443 0.187979,-0.07115 0.379031,0.11262 0.308886,0.297117 -0.02893,0.07613 -0.05606,0.16003 -0.0603,0.186551 -0.0042,0.02654 -0.02388,0.04613 -0.04365,0.0436 -0.0557,-0.0075 -0.625103,0.46773 -0.756679,0.631097 -0.0646,0.08025 -0.157641,0.181854 -0.206746,0.225877 -0.223703,0.20052 -0.318754,0.272931 -0.358282,0.272931 -0.02346,0 -0.484126,0.405089 -1.023717,0.900212 -0.539589,0.495116 -1.057825,0.958085 -1.151633,1.028809 -0.09381,0.07069 -0.29936,0.258813 -0.456782,0.417959 -0.157423,0.159149 -0.453534,0.436945 -0.658026,0.617346 -0.322155,0.28419 -0.358647,0.338901 -0.273278,0.409747 0.05419,0.045 0.09852,0.133114 0.09852,0.195879 0,0.112488 -0.827798,0.898956 -0.946199,0.898956 -0.03351,0 -0.255661,-0.216719 -0.493669,-0.481597 z m -26.165004,-3.795632 -0.107904,-0.226281 0.18733,-0.111295 c 0.10303,-0.06122 1.49153,-0.762355 3.085552,-1.558075 l 2.898221,-1.446768 -0.01565,-0.225052 c -0.01528,-0.220094 -0.0044,-0.231035 0.498768,-0.496128 0.282924,-0.149089 0.5454,-0.272068 0.583282,-0.273277 0.03788,-9.38e-4 0.204995,0.264801 0.371365,0.591151 l 0.302488,0.593353 -0.626084,0.314303 c -0.344347,0.172872 -0.63548,0.286121 -0.646963,0.251677 -0.01148,-0.0345 -0.05893,-0.114664 -0.105417,-0.178253 -0.0785,-0.107347 -0.303798,-0.0047 -3.148819,1.437655 -1.685355,0.854294 -3.087679,1.553267 -3.116278,1.553267 -0.0286,0 -0.100554,-0.101826 -0.1599,-0.226273 z m 35.018497,-3.45495 c -0.07646,-0.0796 -0.270297,-0.291427 -0.430738,-0.470778 l -0.291709,-0.326095 0.271338,-0.253319 c 0.787168,-0.734886 0.739311,-0.702721 0.86977,-0.584655 0.06546,0.05925 0.141417,0.107704 0.168812,0.107704 0.04532,0 0.754678,-0.599148 1.327053,-1.120859 0.126264,-0.115087 0.777311,-0.694726 1.446771,-1.28807 0.669458,-0.593355 1.416534,-1.256177 1.660165,-1.472952 0.683498,-0.608139 0.697312,-0.619183 0.774724,-0.619183 0.04001,0 0.123909,0.08662 0.186436,0.192457 0.111598,0.188914 0.110871,0.195119 -0.03922,0.33758 -0.472417,0.448353 -0.821696,0.755981 -0.858355,0.755981 -0.02292,0 -0.10873,0.07238 -0.190674,0.16075 -0.08194,0.08841 -0.134752,0.160752 -0.117364,0.160752 0.01739,0 -0.0057,0.0404 -0.0513,0.08971 -0.0456,0.04931 -0.09964,0.07959 -0.120083,0.06731 -0.02045,-0.01228 -0.410808,0.337965 -0.867474,0.778369 -0.456668,0.440393 -0.850152,0.800717 -0.874412,0.800717 -0.02426,0 -0.289865,0.233911 -0.590234,0.519808 -0.30037,0.285887 -0.565279,0.524609 -0.588687,0.530477 -0.02341,0.0056 -0.173513,0.136161 -0.333568,0.289515 -0.245688,0.235413 -0.285383,0.306952 -0.254899,0.459379 0.02886,0.144251 -0.0062,0.223918 -0.174281,0.396323 -0.295033,0.3026 -0.679453,0.63374 -0.735702,0.63374 -0.02603,0 -0.109901,-0.06506 -0.186367,-0.144673 z m 8.911514,-2.977225 c -0.322483,-0.168971 -0.465329,-0.811789 -0.285203,-1.283438 0.116826,-0.305903 0.251747,-0.41856 0.497245,-0.415186 0.18918,0.0029 0.325952,0.107693 0.457599,0.351605 0.07315,0.135551 0.104881,0.158576 0.106688,0.07743 0.0066,-0.293668 0.469789,-0.5192 0.803455,-0.391167 0.128727,0.0494 0.291271,0.353302 0.295058,0.551655 0.0021,0.109823 0.02534,0.08475 0.09034,-0.09751 0.133645,-0.374722 0.279497,-0.503598 0.544495,-0.481118 0.175675,0.0149 0.260471,0.06956 0.379216,0.244243 0.135288,0.199076 0.14962,0.279081 0.124139,0.693009 -0.02318,0.376655 -0.05795,0.498968 -0.178159,0.626936 -0.335579,0.357202 -0.80522,0.114926 -0.887125,-0.457653 l -0.04433,-0.309898 -0.119393,0.264766 c -0.06567,0.14563 -0.216221,0.358617 -0.334568,0.473329 -0.183915,0.178253 -0.23,0.196253 -0.317223,0.123859 -0.09102,-0.07556 -0.07741,-0.109923 0.125967,-0.318201 0.236276,-0.241965 0.300319,-0.412541 0.130409,-0.347349 -0.147947,0.05682 -0.470749,-0.101825 -0.523861,-0.257376 -0.03514,-0.102919 -0.05979,-0.04182 -0.09748,0.241552 -0.02774,0.208619 -0.0928,0.443965 -0.144583,0.522996 -0.135516,0.206828 -0.421463,0.292927 -0.622686,0.187497 z m -1.581389,-3.44264 c -0.06341,-0.07828 -0.252736,-0.297417 -0.420722,-0.486902 -0.167987,-0.189495 -0.305429,-0.36893 -0.305429,-0.398751 0,-0.0298 0.204369,-0.231869 0.454154,-0.448982 0.439717,-0.382214 0.459685,-0.391898 0.628118,-0.304794 0.134061,0.06928 0.19741,0.07284 0.276184,0.01519 0.159602,-0.116699 0.884329,-0.752914 1.192152,-1.046554 0.152989,-0.145939 0.412408,-0.375341 0.576489,-0.509796 0.164078,-0.134455 0.547579,-0.47855 0.852222,-0.764671 0.304642,-0.28612 0.685498,-0.625341 0.846348,-0.753815 0.160848,-0.128482 0.436078,-0.373897 0.611619,-0.545364 0.420237,-0.41048 0.872526,-0.776463 0.993158,-0.803641 0.05324,-0.012 0.157647,0.039 0.232008,0.113387 l 0.135202,0.135205 -0.344534,0.361411 c -0.189494,0.198775 -0.344534,0.344565 -0.344534,0.323968 0,-0.04819 -0.347563,0.251668 -1.006143,0.868038 -0.288137,0.269668 -0.627855,0.57453 -0.754931,0.677475 -0.127074,0.102941 -0.397695,0.344647 -0.60138,0.537105 -0.203683,0.192457 -0.515012,0.464562 -0.69184,0.604679 -0.448661,0.355495 -1.382469,1.285435 -1.382469,1.376738 0,0.04163 0.04437,0.112469 0.09859,0.157469 0.116185,0.09643 0.04194,0.191004 -0.562009,0.715988 L 65.002616,35.97815 Z M 22.434266,35.269077 c -0.07315,-0.102718 -0.131724,-0.211224 -0.13019,-0.241131 0.0015,-0.0299 0.327058,-0.304533 0.723384,-0.610275 0.396328,-0.305753 1.053354,-0.812492 1.460055,-1.126101 0.406704,-0.313608 0.862402,-0.653307 1.012664,-0.754884 0.150262,-0.101568 0.338342,-0.247862 0.417956,-0.325072 0.127667,-0.123806 0.919835,-0.745266 1.390925,-1.091179 0.429658,-0.315494 0.466004,-0.368629 0.361383,-0.528303 -0.05306,-0.081 -0.09648,-0.161435 -0.09648,-0.178769 0,-0.03712 1.005856,-0.808921 1.054279,-0.808921 0.05357,0 0.843071,1.057908 0.815783,1.09312 -0.01371,0.01772 -0.253195,0.202441 -0.532201,0.410582 l -0.507282,0.378435 -0.143293,-0.134613 -0.143292,-0.134623 -0.384524,0.286917 c -0.211487,0.157807 -0.428122,0.322975 -0.481408,0.367045 -0.25394,0.210016 -0.960723,0.743015 -1.205394,0.909006 -0.150403,0.102049 -0.347845,0.254464 -0.438755,0.338715 -0.198374,0.18385 -2.974836,2.336799 -3.013551,2.336799 -0.01489,0 -0.08691,-0.084 -0.160057,-0.186748 z m 56.50874,-14.101493 c -0.154535,-0.187113 -0.331834,-0.378024 -0.393997,-0.424232 -0.06216,-0.04622 -0.113035,-0.137276 -0.113035,-0.202357 0,-0.117279 0.825926,-0.903183 0.949169,-0.903183 0.03516,0 0.09993,0.04341 0.143951,0.09645 0.04406,0.05306 0.134371,0.09645 0.200773,0.09645 0.06638,0 0.120729,-0.04341 0.120729,-0.09645 0,-0.05306 0.03863,-0.09645 0.08579,-0.09645 0.04725,0 0.158511,-0.0796 0.247356,-0.17683 0.198259,-0.217028 0.630385,-0.594789 0.6804,-0.594789 0.03816,0 0.18356,-0.129477 0.697865,-0.621431 0.167754,-0.16047 0.495125,-0.444436 0.727481,-0.631042 0.232355,-0.186607 0.605458,-0.516208 0.829113,-0.732449 0.223666,-0.216241 0.444679,-0.4151 0.491159,-0.441913 0.116286,-0.06712 0.859404,-0.723366 1.01993,-0.900738 0.158464,-0.175094 0.371638,-0.186297 0.51573,-0.02709 0.116492,0.128725 0.143313,0.332517 0.04378,0.332517 -0.07678,0 -0.910817,0.702619 -1.234419,1.039917 -0.129851,0.135354 -0.256823,0.246099 -0.282155,0.246099 -0.02531,0 -0.17951,0.121293 -0.342614,0.269537 -0.860303,0.781949 -1.374477,1.241365 -1.823685,1.629466 -0.274083,0.2368 -0.498339,0.456171 -0.498339,0.487493 0,0.03131 -0.03618,0.05757 -0.08034,0.05831 -0.09962,0.0019 -0.819841,0.670201 -0.819841,0.760904 0,0.03628 0.02897,0.0839 0.06431,0.105751 0.151282,0.09347 0.03599,0.285333 -0.387745,0.645048 -0.248621,0.211075 -0.47642,0.392188 -0.506215,0.402472 -0.0298,0.01037 -0.180606,-0.134389 -0.335131,-0.321502 z M 57.476954,9.4936848 c -0.213698,-0.1730407 -0.240186,-0.5639728 -0.0657,-0.9695869 0.173789,-0.4039812 0.481575,-0.6949584 0.616585,-0.5829102 0.07409,0.061503 0.04883,0.1192291 -0.146829,0.3358075 -0.129963,0.1438484 -0.20963,0.2679061 -0.177038,0.2756783 0.03259,0.00747 0.132172,0.030004 0.22129,0.049401 0.08911,0.019408 0.222936,0.092066 0.297375,0.1613792 l 0.135342,0.1260922 0.03913,-0.2854648 c 0.05332,-0.3889912 0.204646,-0.659185 0.396107,-0.7072401 0.439894,-0.110414 0.70075,0.2030129 0.70075,0.8419466 0,0.6390207 -0.260851,0.9523573 -0.700878,0.8419209 C 58.696748,9.5565155 58.583059,9.4453172 58.506577,9.300456 58.436837,9.168373 58.378496,9.1070334 58.376932,9.1641445 58.375332,9.2212305 58.314122,9.3442458 58.240823,9.4374324 58.0793,9.64277 57.695946,9.6709976 57.476952,9.4936826 Z M 47.343029,7.5212584 c -0.05437,-0.289758 -0.0033,-0.357829 0.268134,-0.357829 0.123715,0 0.346256,-0.026904 0.494537,-0.059719 0.148282,-0.032815 0.54449,-0.1061755 0.88046,-0.1629631 0.335974,-0.056808 0.79894,-0.1438294 1.028815,-0.1934504 0.229877,-0.049591 1.097939,-0.2085353 1.929029,-0.3531232 2.236934,-0.3891886 2.222457,-0.3852981 2.198508,-0.5909924 -0.01093,-0.093884 0.0067,-0.1871507 0.03932,-0.2072693 0.08485,-0.052402 1.252696,-0.2360679 1.286477,-0.2022912 0.07691,0.076874 0.241994,1.2647826 0.181015,1.30247 -0.08499,0.052502 -0.917705,0.2023191 -1.149355,0.2067539 -0.135981,0.00279 -0.176827,-0.026814 -0.176827,-0.1272366 0,-0.2436717 0.167679,-0.2626927 -3.922357,0.4450259 -0.406701,0.070404 -1.202425,0.2160152 -1.768274,0.3236485 -0.565847,0.1076367 -1.07814,0.1961788 -1.138428,0.1967789 -0.07432,7.306e-4 -0.122959,-0.070025 -0.15105,-0.2198042 z m 11.954688,0.017066 c -0.143506,-0.069468 -0.280614,-0.306643 -0.280614,-0.4853846 0,-0.057466 0.04936,-0.1589789 0.109678,-0.2256244 0.08953,-0.098948 0.09543,-0.1439889 0.03216,-0.2453214 -0.201487,-0.3226368 0.05208,-0.7688897 0.436884,-0.7688897 0.386477,0 0.685865,0.5492741 0.419762,0.7701178 -0.08284,0.06872 -0.08083,0.097029 0.01607,0.2267119 0.108418,0.1450854 0.113106,0.1456297 0.225203,0.026346 0.104882,-0.1115797 0.106242,-0.137727 0.0163,-0.3116769 -0.117,-0.2262534 -0.05429,-0.4522916 0.168828,-0.6085701 0.183667,-0.1286521 0.329603,-0.1300106 0.57072,-0.00558 0.236049,0.1220712 0.31086,0.3794768 0.177713,0.6114668 -0.08266,0.1440358 -0.0842,0.1878534 -0.01015,0.289178 C 61.31944,7.0014263 61.28609,7.2791 61.101961,7.4632413 60.960793,7.6044082 60.896668,7.6236735 60.66793,7.5936367 60.48665,7.5698227 60.361371,7.5079507 60.281939,7.4029424 L 60.164384,7.2474474 59.9815,7.4303227 C 59.788675,7.6231541 59.550909,7.6605972 59.297729,7.538004 Z m 17.530737,-1.76032 c -0.300606,-0.046122 -0.557783,-0.085964 -0.571502,-0.088686 -0.02932,-0.00558 0.04798,-0.9077221 0.100153,-1.1685498 0.02888,-0.1444199 0.07513,-0.1833912 0.23638,-0.1991597 l 0.20047,-0.019593 0.148679,-1.0609637 c 0.08178,-0.5835294 0.212514,-1.5528724 0.290531,-2.1540828 l 0.141851,-1.09311006 0.273279,-0.01978173 c 0.333667,-0.02409389 0.32585,-0.12872647 0.108763,1.45552359 -0.318098,2.3214431 -0.394072,2.9371566 -0.368308,2.9849403 0.01429,0.026531 0.09664,0.048187 0.182961,0.048187 0.184453,0 0.190426,0.07153 0.0724,0.8674653 -0.05512,0.3717705 -0.102863,0.5162646 -0.172645,0.5226871 -0.05305,0.00468 -0.342402,-0.028878 -0.643009,-0.0749 z"
         id="path5" /><path
         style="fill:#000000;stroke-width:0.937488"
         d="M -16.214957,53.571423 V 37.736141 l 2.100159,-0.693132 c 1.359215,-0.448587 2.115067,-0.668999 2.142415,-0.62475 0.02325,0.03759 0.07986,0.509195 0.125838,1.04797 0.09382,1.099513 0.04361,0.91914 2.5098539,9.01721 0.3123426,1.025592 0.6461242,2.125143 0.7417358,2.443429 0.095612,0.318287 0.3201837,0.853591 0.4990492,1.189568 0.1788655,0.335967 0.7212746,1.348707 1.2053537,2.250532 0.9458846,1.762147 1.1655949,2.173742 2.0079469,3.761601 0.3001795,0.565849 0.6318071,1.187964 0.7369492,1.382474 0.1051438,0.19451 0.3897116,0.729816 0.6323735,1.18956 0.4509097,0.854304 0.4834687,0.898112 2.4863856,3.345741 0.51997445,0.635428 0.95133005,1.184262 0.95856737,1.219623 0.0072167,0.03535 -0.08544235,0.114843 -0.20594806,0.176605 -0.12050927,0.06178 -0.21910762,0.148573 -0.21910762,0.192906 0,0.127695 0.57169089,1.141559 0.6430093,1.140331 0.0353617,-5.99e-4 0.22096387,-0.08747 0.41244087,-0.192991 0.19147611,-0.105539 0.35222327,-0.18459 0.35721438,-0.175665 0.004964,0.0094 0.14359776,0.17695 0.30801336,0.37339 0.2943569,0.35168 0.2992299,0.364974 0.317945,0.867365 0.015862,0.425806 0.037621,0.513761 0.1315322,0.531695 0.088761,0.01698 0.1127347,-0.02362 0.1135119,-0.192204 0.00197,-0.431656 0.086024,-0.410769 0.5360758,0.133218 0.4133512,0.499624 0.4274529,0.528413 0.4274529,0.872565 v 0.355899 h 0.2121927 c 0.2582233,0 0.3665153,0.09751 0.3665153,0.330033 0,0.12476 -0.041944,0.189981 -0.1446768,0.22493 -0.1622312,0.05521 -0.1451455,0.05521 -0.3858059,-9.37e-4 -0.2597852,-0.06112 -0.2480985,0.180607 0.013134,0.271675 0.2844655,0.09916 0.6227689,-0.01519 0.7451747,-0.251903 l 0.099428,-0.192278 0.2938244,0.360698 c 0.1616022,0.19839 0.5520355,0.575616 0.8676283,0.838282 L 5.39503,69.407155 H 4.4701907 c -0.843176,0 -0.9351144,-0.01134 -1.041221,-0.128605 -0.064011,-0.07068 -0.1842368,-0.128595 -0.2671699,-0.128595 -0.1294594,0 -0.1507863,-0.03188 -0.1507863,-0.225052 0,-0.2197 0.00609,-0.225053 0.2572042,-0.225053 0.1793639,0 0.2572035,-0.02766 0.2572035,-0.09131 0,-0.115686 -0.3248216,-0.189467 -0.5837415,-0.132599 l -0.1979354,0.0435 0.021113,0.444041 c 0.01845,0.388101 0.00694,0.444013 -0.091424,0.443892 -0.08173,-1.13e-4 -0.1125265,-0.05212 -0.1125265,-0.19003 0,-0.342164 -0.2723916,-0.774636 -0.4879096,-0.774636 -0.3386869,0 -0.6052051,0.32424 -0.6052051,0.736274 v 0.228242 h -8.841374 -8.8413741 z M 7.1867199,69.259999 C 7.0961869,69.18153 6.5721606,68.747473 6.0222165,68.295408 5.0522221,67.498037 4.8647546,67.284825 4.7818489,66.884678 4.738162,66.673808 4.511878,66.448868 4.3434396,66.448868 c -0.1316138,0 -0.362275,-0.235722 -0.3657727,-0.373804 -0.00253,-0.100376 0.5060348,-1.357875 0.5975824,-1.477574 0.042525,-0.05559 0.039824,-0.106833 -0.00815,-0.154816 C 4.4510901,64.326669 4.3427156,64.46593 4.109571,65.030628 3.9923052,65.314659 3.8750987,65.53391 3.8491135,65.51785 3.8231268,65.501822 3.7047348,65.263435 3.5860171,64.988169 3.3823975,64.516051 3.3012121,64.394534 3.1878437,64.392218 c -0.090289,-0.0019 -0.048515,0.179276 0.1363698,0.591367 0.3095395,0.689897 0.3095967,0.759899 3.121e-4,0.382457 C 3.1697783,65.177195 3.0395492,64.996344 3.0351289,64.96416 3.0307189,64.932 3.0234759,64.804365 3.0190499,64.680589 c -0.00628,-0.176547 -0.034734,-0.225053 -0.1319252,-0.225053 -0.068137,0 -0.1332422,0.04182 -0.1446767,0.09291 C 2.730383,64.602356 2.5238279,64.396694 2.2503338,64.058468 1.9911055,63.737885 1.8030259,63.451829 1.8323777,63.422795 1.8617307,63.393735 2.9129534,62.801514 4.1684286,62.106714 5.423904,61.411914 6.631965,60.743279 6.8530093,60.620852 L 7.2549102,60.398277 7.155078,60.20522 C 7.100164,60.099033 7.014361,59.996475 6.9643958,59.977304 c -0.049968,-0.01922 -0.2582346,0.06506 -0.4628195,0.187263 -0.2045861,0.122174 -0.5600539,0.322758 -0.7899304,0.445755 -0.3718853,0.198983 -1.0696269,0.584206 -1.9290271,1.065015 -1.194907,0.668522 -1.8849913,1.044294 -1.920028,1.045514 -0.022631,7.77e-4 -0.1134875,0.05802 -0.2019019,0.12717 -0.088414,0.06919 -0.1902939,0.126383 -0.2264013,0.12717 -0.070668,0.0019 -0.46498705,-0.463521 -2.2613595,-2.667058 -1.1095178,-1.361006 -1.2427732,-1.559884 -1.9809759,-2.956543 -0.43801,-0.828701 -1.6906568,-3.172738 -3.041752,-5.691926 -1.3902958,-2.592283 -1.4019245,-2.617266 -1.7510009,-3.76161 -0.1833978,-0.601211 -0.3704272,-1.223318 -0.4156207,-1.382466 -0.072563,-0.255521 -0.566206,-1.880617 -1.7481296,-5.754933 -0.1941989,-0.636572 -0.381219,-1.258689 -0.4156,-1.382466 -0.03438,-0.123785 -0.1196,-0.401655 -0.189375,-0.617503 -0.116781,-0.361261 -0.396332,-2.693775 -0.336061,-2.804014 0.01375,-0.02512 0.378446,-0.160067 0.8104365,-0.299818 0.4319901,-0.139752 0.9735186,-0.341452 1.2033938,-0.448223 0.2298759,-0.106767 1.2570826,-0.572054 2.2826822,-1.033945 1.0255996,-0.4619 1.9081294,-0.863238 1.9611779,-0.891869 0.1014451,-0.05476 0.2960698,-0.417182 0.7667333,-1.42784 0.1564628,-0.335967 0.4226314,-0.903981 0.5914878,-1.262242 L -2.7826654,29.94135 -2.891896,28.728008 -3.0011267,27.514675 -3.912427,26.903808 c -0.5012152,-0.335967 -0.9305947,-0.63032 -0.954178,-0.654103 -0.038831,-0.0392 1.5878312,-1.169797 1.8003427,-1.251349 0.091846,-0.03525 1.0979259,0.384155 1.2343349,0.514558 0.058556,0.05597 0.055846,0.254631 -0.011747,0.86217 -0.048308,0.434197 -0.075289,0.882691 -0.059952,0.996661 0.015337,0.113979 0.130579,1.277833 0.256099,2.586359 0.1255211,1.308525 0.2699458,2.784233 0.3209432,3.279349 0.051,0.495114 0.1402217,1.405386 0.1982748,2.022815 0.1160702,1.234483 0.010195,0.83819 1.76169198,6.593506 0.29059373,0.954868 0.65057852,2.141409 0.79996702,2.636767 0.2012738,0.667388 0.3845451,1.108682 0.70768,1.703967 0.2398355,0.441838 0.4739138,0.87568 0.5201742,0.964094 0.046256,0.08841 0.2409088,0.450105 0.4325508,0.803754 0.1916431,0.353658 0.5086366,0.946835 0.7044308,1.318173 0.195795,0.371338 0.7642921,1.437843 1.2633276,2.370015 0.4990357,0.932161 0.9073375,1.710894 0.9073375,1.730507 0,0.03028 0.6674637,0.864381 0.8668719,1.083295 0.036019,0.03956 0.2153942,0.256561 0.3986083,0.482261 0.3551735,0.437525 1.3647225,1.672713 2.7791993,3.40035 0.477758,0.58353 0.935034,1.133009 1.016171,1.221058 0.08114,0.08803 0.147522,0.21103 0.147522,0.273278 0,0.06224 0.04144,0.113183 0.09207,0.113183 0.05064,0 0.151913,0.084 0.225053,0.186758 0.14049,0.197293 0.164004,0.268251 0.08476,0.255736 -0.02652,-0.0038 -0.127799,-0.0038 -0.225054,0 -0.297761,0.01285 -0.196076,0.136216 0.11225,0.136216 0.308848,0 0.191057,-0.08258 1.832853,1.28568 0.159145,0.132626 1.273158,1.046076 2.475584,2.029874 1.202428,0.9838 2.399163,1.964065 2.659412,2.178355 0.260249,0.214291 0.535135,0.437132 0.610859,0.4952 0.136358,0.104569 0.953531,0.555508 2.195307,1.21143 0.353655,0.186813 0.729815,0.389938 0.835912,0.451392 0.106097,0.06149 0.525658,0.28611 0.932362,0.49924 0.406704,0.213128 0.86967,0.462499 1.028815,0.554157 l 0.289353,0.166647 -8.487718,-9.37e-4 -8.4877196,-9.38e-4 z M 23.394401,67.532322 C 19.639693,65.526297 19.922558,65.706059 17.896673,64.038607 17.436922,63.6602 16.29512,62.723903 15.359335,61.957957 l -1.701425,-1.392628 0.624385,-0.01837 c 0.34502,-0.01026 0.624386,-0.04612 0.624386,-0.08034 0,-0.05878 -0.47853,-0.08681 -1.077611,-0.06309 -0.328169,0.01303 -0.568293,-0.122248 -0.990228,-0.557777 C 12.594028,59.593043 10.473014,57.034716 9.5697061,55.902578 9.4459269,55.747443 9.2685103,55.53228 9.1754459,55.424442 9.0823815,55.316603 8.570616,54.695751 8.0381879,54.044769 7.0799149,52.873126 7.0602417,52.842601 6.0905172,51.022629 5.5517265,50.011429 4.9241632,48.83686 4.695932,48.412469 4.220656,47.528709 3.9293722,46.982932 3.4948226,46.161936 3.3263524,45.843651 3.1030344,45.431297 2.998559,45.24559 2.8940835,45.059893 2.679563,44.481182 2.5218468,43.959574 2.128885,42.659953 1.9809598,42.174448 1.0769869,39.217445 0.64453077,37.802824 0.25055088,36.442858 0.20147612,36.195296 c -0.13901141,-0.70124 -0.87305637,-8.278153 -0.87523409,-9.034272 -0.001031,-0.37134 0.0178119,-0.778996 0.0419527,-0.905913 l 0.0439024,-0.230753 0.69026806,-0.07471 c 0.99873401,-0.108183 0.91944701,-0.133807 0.81381374,0.262993 -0.0494248,0.18567 -0.0902141,0.396436 -0.0906368,0.468378 -8.1279e-4,0.139246 0.62401297,0.801561 0.75619397,0.801561 0.1069355,0 1.243153,-0.430774 1.305137,-0.494814 0.027544,-0.02841 -0.080015,-0.32663 -0.2390274,-0.662597 -0.250819,-0.529962 -0.757859,-1.926471 -0.7134062,-1.964889 0.00862,-0.0075 0.247476,-0.129476 0.5308727,-0.271243 0.3950074,-0.197586 0.5407837,-0.308134 0.6245979,-0.473657 0.060129,-0.118747 0.2102753,-0.389522 0.3336524,-0.601713 0.1233781,-0.2122 0.2257028,-0.404188 0.2273894,-0.42666 0.00168,-0.02251 -0.1941254,-0.159991 -0.4351376,-0.305611 C 2.784285,22.02066 2.7703277,22.017134 2.2995273,22.04989 L 1.8214436,22.083163 1.3720329,21.569917 C 1.1248578,21.28763 0.91210073,21.025106 0.89923932,20.986519 0.88637645,20.947992 1.2447249,20.063891 1.6955644,19.021977 2.4931578,17.17869 2.5189237,17.129959 2.6506143,17.215589 c 0.074436,0.04838 0.449108,0.281669 0.8325993,0.518356 l 0.697258,0.430335 0.3315573,-0.2905 C 4.6943851,17.71402 5.0558727,17.385262 5.3153335,17.143231 L 5.7870808,16.703167 5.4651252,16.032516 C 5.1664511,15.410363 5.0893287,15.308476 4.3985948,14.623465 3.9890779,14.217335 3.6540191,13.865788 3.6540191,13.842255 c 0,-0.02352 0.397862,-0.372303 0.8841375,-0.775028 1.4710973,-1.21835 1.2529525,-1.103958 2.4170921,-1.26752 0.8502005,-0.119456 1.0379024,-0.129168 1.1356486,-0.05878 0.064406,0.0464 0.5856238,0.423679 1.1582624,0.838395 l 1.0411623,0.75404 0.427377,-0.302546 c 0.373012,-0.264052 1.428988,-1.033467 1.471507,-1.072185 0.03721,-0.03385 0.222346,-1.460333 0.193305,-1.489376 -0.01782,-0.01781 -0.361403,-0.142916 -0.76352,-0.277999 l -0.73112,-0.2456065 -0.01825,-0.6837753 c -0.01174,-0.439672 0.0054,-0.6837842 0.04823,-0.6837842 0.03656,0 0.06648,-0.043412 0.06648,-0.096449 0,-0.05306 -0.02893,-0.09646 -0.0643,-0.09646 -0.03536,0 -0.0643,-0.097252 -0.0643,-0.2161278 0,-0.1958788 0.01508,-0.2132601 0.160753,-0.1854073 0.09249,0.017724 0.160751,7.596e-4 0.160751,-0.039842 0,-0.038816 -0.07234,-0.088775 -0.160751,-0.1109272 -0.159118,-0.039931 -0.160722,-0.047338 -0.157775,-0.7246081 l 0.003,-0.6842627 0.238152,-0.1793785 c 0.130983,-0.098658 0.845795,-0.5724399 1.58847,-1.0528643 0.742676,-0.480415 1.46606,-0.9810425 1.607523,-1.1125062 0.141462,-0.1314639 0.546558,-0.4364472 0.900212,-0.6777565 0.353655,-0.2412998 0.719669,-0.4951337 0.813363,-0.5640671 l 0.170354,-0.125342 0.897996,0.2673056 0.898,0.2673058 0.699923,-0.2827088 c 0.38494,-0.1554921 1.191808,-0.4760002 1.793021,-0.712247 L 21.561838,1.8221997 22.168867,1.2617138 C 22.502732,0.95344928 22.951232,0.5356675 23.16553,0.3333202 l 0.389637,-0.36791676 1.979756,-0.0018739 1.979755,-0.0018739 -0.363731,0.29626473 c -0.200052,0.16294457 -1.264858,1.03823893 -2.366236,1.94509833 -1.101379,0.9068688 -2.075074,1.706714 -2.163767,1.7774474 -0.0887,0.070687 -0.492271,0.5336927 -0.896841,1.028807 -0.404568,0.4951244 -0.823599,1.0025305 -0.931179,1.127572 -0.107581,0.1250516 -0.296872,0.3544449 -0.420652,0.5097775 -0.123779,0.1553226 -0.456536,0.5625206 -0.739461,0.9048812 -1.091723,1.3210604 -1.215682,1.4826169 -1.431762,1.866039 -0.238346,0.4229397 -0.223722,0.4171552 -0.706242,0.2797483 -0.104212,-0.029714 -0.144677,-0.014155 -0.144677,0.055592 0,0.05954 0.08579,0.1128824 0.222798,0.1385892 0.269286,0.050528 0.320859,0.1192187 0.22457,0.2991317 -0.06356,0.118762 -0.109566,0.130892 -0.356091,0.09393 -0.240323,-0.03609 -0.277289,-0.02728 -0.244613,0.05785 0.02117,0.05521 0.08603,0.100755 0.144141,0.101302 0.183165,0.0019 0.298718,0.107201 0.222447,0.203088 -0.03731,0.04688 -0.436544,0.779727 -0.887195,1.628499 -0.45065,0.848774 -0.928333,1.74577 -1.061517,1.993332 -0.133185,0.247563 -0.349292,0.811799 -0.480238,1.253869 -0.130945,0.442063 -0.263408,0.876101 -0.294362,0.964506 -0.03096,0.08841 -0.247398,0.797333 -0.480984,1.575382 -0.233588,0.778038 -0.520555,1.732908 -0.637707,2.121928 -0.154687,0.513668 -0.233634,0.944958 -0.288362,1.575372 -0.04145,0.477435 -0.101156,1.085075 -0.132677,1.350319 -0.03153,0.265243 -0.135078,1.306913 -0.23012,2.314833 l -0.172802,1.832572 0.323547,3.215075 c 0.177951,1.768288 0.353324,3.287402 0.389719,3.375796 0.0364,0.08841 0.330438,1.043255 0.653431,2.1219 1.145398,3.825097 1.029053,3.525739 2.286597,5.883537 0.622459,1.16706 1.28122,2.405995 1.463912,2.753184 0.242785,0.461394 0.597887,0.954532 1.319632,1.832582 0.543102,0.660723 1.460893,1.783213 2.039534,2.49442 l 1.052074,1.293112 1.555971,1.278931 c 3.583673,2.945584 3.310165,2.74617 4.99107,3.63909 0.839718,0.446075 2.096106,1.116331 2.791974,1.48947 1.366511,0.732759 1.061258,0.621553 4.811222,1.752651 0.760358,0.229346 1.642887,0.499343 1.961178,0.600001 0.54048,0.170932 0.997736,0.235966 2.590929,0.368526 0.335926,0.02793 0.484362,0.06825 0.523139,0.142047 0.122691,0.233511 0.707363,2.083735 0.675004,2.136094 -0.01929,0.03122 -0.09122,0.05672 -0.159866,0.05672 -0.07589,0 -0.124808,0.04397 -0.124808,0.112311 0,0.143915 0.319173,1.116867 0.399926,1.219118 0.03369,0.04266 0.03894,0.115002 0.01167,0.16075 -0.06328,0.106187 -2.309439,3.5118 -3.330386,5.049523 l -0.778514,1.17257 -5.72278,-1.3e-4 -5.72278,-1.23e-4 z M 20.924904,61.88218 c 0.356891,-0.120522 0.385808,-0.144935 0.399832,-0.33758 0.02784,-0.382297 0.06615,-0.432706 0.328938,-0.432706 0.2235,0 0.256794,-0.02428 0.397438,-0.289354 l 0.153501,-0.289356 h 0.369841 c 0.203693,0 0.36984,-0.02888 0.36984,-0.06431 0,-0.03544 -0.180107,-0.06647 -0.401881,-0.06919 -0.221032,-0.0029 -0.445283,-0.0136 -0.498332,-0.02409 -0.05305,-0.0106 -0.402327,-0.05653 -0.776178,-0.102238 -0.602094,-0.07359 -0.728452,-0.07087 -1.10633,0.02409 -0.234631,0.05897 -0.529165,0.107157 -0.654516,0.107157 -0.125353,0 -0.227914,0.02897 -0.227914,0.06431 0,0.03535 0.07431,0.06432 0.165131,0.06432 h 0.165131 l -0.139995,0.1966 c -0.07699,0.108139 -0.128443,0.208161 -0.114324,0.222278 0.01411,0.01416 0.241524,0.09318 0.505346,0.175629 0.413708,0.129336 0.48206,0.17172 0.497017,0.308208 0.0408,0.372287 0.08816,0.576209 0.13384,0.576209 0.0269,0 0.222023,-0.0585 0.433615,-0.129927 z m 18.052846,7.283394 c 0.228653,-0.360961 3.955659,-6.00347 4.086068,-6.186121 0.06202,-0.0868 0.211857,-0.183156 0.332986,-0.21401 0.305253,-0.07772 0.343931,-0.13256 0.261153,-0.370016 -0.06698,-0.192128 -0.0496,-0.238263 0.274294,-0.728258 0.190192,-0.287716 0.61667,-0.825346 0.94773,-1.194724 l 0.601926,-0.671599 2.154008,-0.217055 2.154007,-0.217057 0.233792,0.261719 c 0.128582,0.14395 0.251559,0.261717 0.273277,0.261717 0.07885,0 0.0366,-0.144138 -0.08911,-0.303951 -0.07073,-0.0899 -0.128602,-0.18853 -0.128602,-0.219128 0,-0.106968 0.465318,-0.05925 0.554486,0.0569 0.08103,0.105518 0.08881,0.104034 0.124917,-0.02371 0.03404,-0.120486 0.102996,-0.141505 0.595204,-0.181442 0.342058,-0.02775 0.817257,-0.12794 1.232494,-0.259853 0.371686,-0.118077 1.066421,-0.331889 1.543856,-0.475147 3.138055,-0.941603 3.928127,-1.200311 4.340311,-1.421268 0.247558,-0.132701 0.681589,-0.364635 0.964514,-0.515393 0.282924,-0.150765 0.659085,-0.353517 0.835911,-0.450564 0.176829,-0.09704 0.596391,-0.32186 0.932363,-0.499596 2.577962,-1.363782 2.298713,-1.185829 3.833335,-2.442811 3.753955,-3.074799 3.457195,-2.805768 4.500951,-4.08047 0.529461,-0.646612 1.438862,-1.754263 2.020891,-2.461437 1.160737,-1.41031 0.949267,-1.057871 3.356713,-5.594418 0.319049,-0.601219 0.601297,-1.12205 0.627218,-1.157421 0.05169,-0.07049 0.254972,-0.692155 0.599279,-1.832572 0.12279,-0.40671 0.456934,-1.50625 0.742544,-2.443438 0.605998,-1.988486 0.619076,-2.046806 0.742726,-3.311495 0.05187,-0.530486 0.185975,-1.897558 0.298021,-3.037936 l 0.203725,-2.073431 -0.166896,-1.652059 c -0.155285,-1.537188 -0.159516,-1.660206 -0.06086,-1.769226 0.09904,-0.109432 0.09667,-0.127132 -0.03579,-0.26814 -0.118929,-0.126589 -0.145609,-0.241449 -0.165229,-0.711252 -0.01287,-0.308163 -0.04061,-0.577493 -0.06166,-0.598531 -0.05538,-0.0554 -0.04706,-0.33816 0.01004,-0.339219 0.02652,-4.88e-4 0.277147,-0.203294 0.556945,-0.450669 0.481747,-0.425948 0.514981,-0.444116 0.626936,-0.342801 0.06506,0.05887 0.116061,0.138673 0.113435,0.177401 -0.0029,0.03871 -0.234118,0.268298 -0.514408,0.510171 -0.28029,0.241871 -0.509629,0.466117 -0.509629,0.49833 0,0.139564 0.181321,0.02926 0.654696,-0.398132 0.419132,-0.378455 0.522039,-0.443225 0.600629,-0.378005 0.09728,0.08071 0.101145,0.07818 0.882795,-0.586417 0.146228,-0.124328 0.187215,-0.203593 0.1597,-0.308836 -0.02868,-0.109644 0.0269,-0.20049 0.24639,-0.40282 0.155886,-0.143687 0.266828,-0.288098 0.246541,-0.32092 -0.05766,-0.09337 0.10361,-0.246934 0.259299,-0.246934 0.07743,0 0.196845,-0.05063 0.265402,-0.112527 0.06853,-0.06187 0.319966,-0.282446 0.558678,-0.490109 0.23872,-0.207671 0.434037,-0.428384 0.434037,-0.490464 0,-0.137605 0.113118,-0.237438 0.302696,-0.267138 0.196178,-0.03075 1.150934,-0.882643 1.23198,-1.099279 0.0405,-0.108261 0.113867,-0.176818 0.189222,-0.176818 0.06768,0 0.387482,-0.23575 0.710652,-0.523878 0.635346,-0.56644 0.697708,-0.700584 0.438773,-0.943843 -0.266152,-0.250027 -0.312023,-0.225343 -1.245583,0.670293 -0.187947,0.180317 -0.341723,0.313112 -0.341723,0.295102 0,-0.018 0.235965,-0.62083 0.524374,-1.339612 0.595201,-1.483385 0.414763,-1.254113 2.015514,-2.561008 0.424381,-0.346487 0.815557,-0.667875 0.869266,-0.714206 0.07068,-0.06093 0.168438,-0.0691 0.353647,-0.02935 0.140802,0.03019 0.468294,0.08952 0.727753,0.131858 l 0.471744,0.07697 -0.177701,0.185483 c -0.252446,0.263499 -0.139021,0.311536 0.162823,0.069 0.495199,-0.397954 0.787902,-0.171606 0.335162,0.259178 -0.399717,0.380329 -0.345297,0.539993 0.06178,0.181207 0.119737,-0.105529 0.236173,-0.192335 0.258766,-0.192898 0.02259,-5.62e-4 0.06047,0.102317 0.08418,0.228626 0.04107,0.219053 0.02456,0.246718 -0.358906,0.599391 -0.255231,0.234747 -0.375052,0.386395 -0.328177,0.415362 0.04266,0.02635 0.230415,-0.09619 0.445014,-0.290535 l 0.371209,-0.336164 0.06197,0.216137 c 0.05925,0.206491 0.04809,0.22871 -0.249411,0.498058 -0.206163,0.186655 -0.289814,0.303513 -0.247542,0.345784 0.04229,0.04228 0.148778,-0.01266 0.315136,-0.16241 0.138204,-0.124452 0.267436,-0.226948 0.287189,-0.227762 0.01979,-8.26e-4 0.110693,0.251685 0.202114,0.561131 0.0914,0.309457 0.386563,1.286027 0.655893,2.170162 0.340393,1.1174 0.508569,1.783963 0.551589,2.186228 0.03403,0.318287 0.149127,1.475708 0.255738,2.572035 0.106622,1.096335 0.281002,2.87651 0.38752,3.955961 0.209603,2.124063 0.211318,1.903268 -0.03327,4.274557 -0.05476,0.530486 -0.226675,2.252753 -0.38212,3.827272 l -0.282615,2.862757 -0.429763,1.413253 c -0.236368,0.777289 -0.511183,1.688142 -0.610688,2.02411 -0.09951,0.335976 -0.301223,1.001489 -0.448249,1.478923 -0.147037,0.477434 -0.349224,1.142947 -0.449311,1.478923 -0.561226,1.883881 -0.717673,2.351209 -0.888793,2.654795 -0.103923,0.184358 -0.311612,0.566673 -0.461544,0.849598 -0.149932,0.282924 -0.496727,0.933971 -0.770671,1.446777 -0.768823,1.439202 -0.913842,1.711598 -1.882849,3.536548 -0.763283,1.437534 -0.997833,1.819597 -1.499979,2.443428 -0.32737,0.406712 -0.647832,0.797512 -0.712144,0.868471 -0.06432,0.07097 -0.290461,0.34583 -0.502577,0.610857 -0.212115,0.265018 -0.401854,0.496323 -0.421644,0.514005 -0.01979,0.01772 -0.234606,0.278106 -0.477369,0.578711 -0.242762,0.300605 -0.633093,0.778039 -0.86741,1.060964 -0.234315,0.282924 -0.756674,0.919505 -1.160796,1.414621 -0.404132,0.495115 -0.771046,0.937805 -0.81537,0.983743 -0.04435,0.04593 -0.117411,0.134651 -0.162401,0.197116 -0.045,0.06243 -0.484902,0.444434 -0.97756,0.848829 -1.711726,1.40503 -5.215684,4.275766 -5.6951,4.665891 -0.265242,0.215848 -0.757144,0.5375 -1.093115,0.714796 -0.335974,0.17729 -1.218504,0.647768 -1.961179,1.045496 -0.742675,0.397738 -1.625206,0.868302 -1.961178,1.045702 -0.335972,0.1774 -0.856809,0.459191 -1.157417,0.626194 -0.300606,0.167004 -0.726578,0.394382 -0.946604,0.505287 l -0.400047,0.201644 H 51.462773 38.825006 Z M 80.268556,21.952635 c 0.174166,-0.176819 0.348876,-0.321502 0.38825,-0.321502 0.03937,0 0.13843,0.07115 0.220132,0.158126 0.180063,0.191661 0.605776,0.269725 0.968649,0.177617 0.148995,-0.03778 0.271178,-0.04097 0.291859,-0.0075 0.08268,0.133826 0.237897,0.04059 0.332264,-0.199648 l 0.101033,-0.257208 h 0.375547 c 0.370674,0 0.377011,0.0029 0.488675,0.240268 0.10969,0.232946 0.342267,0.371236 0.33383,0.198485 -0.0096,-0.195945 -0.744393,-1.692615 -0.831016,-1.692615 -0.05615,0 -0.207776,0.275416 -0.389386,0.707307 -0.331888,0.789251 -0.264868,0.740548 -1.047773,0.761539 -0.325045,0.0085 -0.392179,-0.0106 -0.499999,-0.143782 -0.112151,-0.138552 -0.114776,-0.164633 -0.02643,-0.262262 0.13617,-0.150477 0.122512,-0.216119 -0.03637,-0.174579 -0.118245,0.03094 -0.129392,0.01444 -0.09252,-0.137182 0.06319,-0.259657 0.298692,-0.461367 0.584072,-0.500253 l 0.253741,-0.0346 -0.17682,0.151517 c -0.167688,0.143679 -0.235253,0.307439 -0.126861,0.307439 0.02747,0 0.146135,-0.08784 0.263669,-0.195185 0.144551,-0.132026 0.253215,-0.182641 0.335836,-0.15642 0.09495,0.03019 0.122136,0.0066 0.122136,-0.104078 0,-0.08709 0.100387,-0.228775 0.2572,-0.362996 0.141466,-0.121085 0.257208,-0.246839 0.257208,-0.279445 0,-0.124367 -0.171148,-0.04632 -0.441256,0.201185 -0.252175,0.231081 -0.304139,0.252774 -0.514409,0.214806 -0.128651,-0.02326 -0.241824,-0.04875 -0.251499,-0.05672 -0.0097,-0.0075 0.171166,-0.180156 0.401873,-0.382711 0.405932,-0.356384 0.498453,-0.486011 0.346898,-0.486011 -0.07866,0 -0.332817,0.215622 -1.090767,0.925337 -0.268505,0.251424 -0.753177,0.683063 -1.077042,0.959189 -0.323864,0.276138 -0.588844,0.529315 -0.588844,0.562634 0,0.143323 0.191575,0.02709 0.643013,-0.390032 l 0.482252,-0.445625 0.03618,0.239133 c 0.03441,0.227669 0.01669,0.257162 -0.369726,0.614486 -0.223244,0.206435 -0.405894,0.401741 -0.405894,0.434028 0,0.138673 0.187403,0.03656 0.482263,-0.262814 z M 67.086867,69.191028 c 0.514905,-0.285897 4.247711,-2.285126 4.533214,-2.427924 0.123779,-0.06187 0.456535,-0.304354 0.73946,-0.538773 0.282924,-0.234419 0.643892,-0.532981 0.802152,-0.663479 0.629967,-0.519424 4.389562,-3.604451 5.125099,-4.20553 0.430748,-0.351997 0.893716,-0.778226 1.028819,-0.94718 0.1351,-0.168944 0.896677,-1.097105 1.692398,-2.062575 0.795729,-0.965471 1.777644,-2.163083 2.182038,-2.661357 0.404395,-0.498275 0.97119,-1.187956 1.259542,-1.532623 0.310806,-0.371498 0.649717,-0.868956 0.832358,-1.221715 0.169441,-0.327287 0.358626,-0.681862 0.420406,-0.787957 0.06178,-0.106098 0.387529,-0.713738 0.72389,-1.350319 0.336352,-0.636582 0.697247,-1.316561 0.801983,-1.51107 0.104736,-0.19451 0.329058,-0.614073 0.498481,-0.932369 0.294726,-0.553661 0.498376,-0.935509 1.028836,-1.92902 0.132175,-0.247563 0.307918,-0.565886 0.390538,-0.707391 0.120757,-0.206819 0.765918,-2.167029 1.068716,-3.247117 0.103912,-0.370636 1.147025,-3.812995 1.208056,-3.986655 0.315971,-0.899126 0.642629,-2.243041 0.703322,-2.893545 0.162166,-1.737998 0.660591,-6.786901 0.74518,-7.548366 0.08494,-0.764482 0.08232,-0.921924 -0.03412,-2.025477 -0.111229,-1.054663 -0.513134,-5.132067 -0.71056,-7.208696 -0.08194,-0.861352 -0.09318,-0.908265 -0.696458,-2.893535 -0.252551,-0.83109 -0.476685,-1.56894 -0.498077,-1.639673 -0.03684,-0.121704 -0.03244,-0.122802 0.08239,-0.02043 0.113727,0.10139 0.20577,0.100587 1.471396,-0.01294 0.742532,-0.06665 1.734318,-0.184367 2.203962,-0.261652 0.469644,-0.07725 0.870392,-0.12402 0.890548,-0.103855 0.02016,0.02016 -0.0675,0.470412 -0.194811,1.000561 -0.127309,0.530148 -0.231465,1.023989 -0.231465,1.097423 0,0.130075 0.02935,0.133554 1.141344,0.135025 l 1.141344,0.0019 0.450107,0.306839 c 0.247552,0.168758 0.855193,0.592417 1.350317,0.941463 0.495116,0.349035 1.110168,0.779473 1.366778,0.956528 0.54793,0.37805 1.21689,1.051925 1.26192,1.271204 0.0174,0.08466 0.1953,1.829543 0.39535,3.877502 l 0.36374,3.723558 -0.13467,1.356207 c -0.0741,0.745921 -0.30678,3.121279 -0.51712,5.278578 -0.42648,4.373921 -0.44856,4.547055 -0.6723,5.272671 -0.0873,0.282924 -0.23025,0.745893 -0.31779,1.028817 -0.25536,0.825298 -1.195265,3.921996 -1.971157,6.494386 l -0.7176,2.379136 -0.870944,1.639674 c -0.479018,0.901816 -0.957277,1.796779 -1.062782,1.988786 -0.105518,0.192016 -0.322936,0.597113 -0.483162,0.900212 -0.160226,0.303108 -0.485806,0.912794 -0.723515,1.354856 -0.2377,0.442073 -0.547746,1.020783 -0.688969,1.286026 -1.616618,3.036119 -1.319213,2.602934 -4.039506,5.883529 -0.768449,0.926734 -2.847129,3.461297 -3.375048,4.115259 -0.2284,0.282924 -0.478044,0.586745 -0.554758,0.675159 -0.07668,0.08841 -0.250534,0.294569 -0.386273,0.458122 -0.135729,0.163554 -0.744393,0.706088 -1.352578,1.205637 l -1.105803,0.908275 -8.475036,-7.31e-4 -8.475035,-7.4e-4 z m 18.719913,0.07096 c 0.637472,-0.475203 1.061386,-0.883479 1.552273,-1.495001 0.141944,-0.176829 0.40026,-0.495116 0.574041,-0.707306 0.479703,-0.585752 2.451193,-2.987435 2.691939,-3.279349 2.538964,-3.078567 3.380996,-4.124822 3.544841,-4.404615 0.14772,-0.252259 0.06431,-0.09655 2.239676,-4.179552 0.876175,-1.644501 1.671023,-3.134675 1.766337,-3.311495 1.273417,-2.362467 1.326404,-2.481238 1.706931,-3.825904 0.045,-0.159147 0.287152,-0.962106 0.538032,-1.784356 0.25087,-0.822242 0.65603,-2.153277 0.90034,-2.957838 0.2443,-0.804569 0.66503,-2.186229 0.93495,-3.070373 l 0.49077,-1.607518 0.25116,-2.507741 c 0.78331,-7.82109 0.89085,-9.054513 0.83257,-9.548682 -0.0313,-0.265243 -0.15857,-1.538398 -0.28286,-2.829243 -0.12429,-1.290835 -0.23985,-2.446681 -0.25682,-2.568536 -0.0308,-0.221415 -0.0306,-0.221257 0.46692,0.273278 l 0.49775,0.494834 h 1.49358 1.49356 V 45.679637 69.406668 H 96.427736 85.612691 Z M 43.363917,61.523198 C 43.326562,61.374362 43.2988,61.36016 43.113173,61.394987 l -0.208741,0.0392 -0.30638,-0.939877 c -0.168508,-0.516931 -0.29052,-0.955741 -0.271136,-0.975119 0.02676,-0.02672 1.995314,0.137793 2.46175,0.205779 0.187137,0.02728 0.13456,0.127649 -0.349161,0.666544 -0.281696,0.313823 -0.620974,0.734503 -0.75395,0.934834 -0.132978,0.200341 -0.250294,0.36425 -0.260703,0.36425 -0.01049,0 -0.03784,-0.07528 -0.06094,-0.167358 z m 0.302484,-2.850363 c -0.927718,-0.09548 -1.701612,-0.188455 -1.719763,-0.206614 -0.01815,-0.01818 -0.294153,-0.825598 -0.613338,-1.794331 -0.319185,-0.968725 -0.601434,-1.779847 -0.62722,-1.802489 -0.08737,-0.07668 -0.464841,0.069 -0.464841,0.179399 0,0.0584 0.236993,0.823667 0.526653,1.70061 0.289659,0.876945 0.508564,1.612534 0.486455,1.634641 -0.06503,0.06506 -1.648573,-0.10438 -2.138374,-0.228757 -0.247559,-0.06291 -0.985413,-0.279567 -1.639673,-0.481559 -0.654262,-0.201981 -1.435519,-0.439118 -1.736126,-0.526961 -2.186738,-0.63902 -2.311189,-0.689062 -4.099738,-1.648712 -0.94572,-0.507424 -2.167992,-1.161255 -2.716158,-1.452964 -0.87947,-0.468012 -1.1441,-0.651591 -2.250531,-1.561216 -0.689627,-0.566955 -1.771624,-1.454549 -2.404439,-1.972436 l -1.15057,-0.941602 -1.839421,-2.242704 c -1.011681,-1.23348 -1.900251,-2.318556 -1.974598,-2.411283 -0.115263,-0.143754 -1.462811,-2.627158 -2.551297,-4.701797 -0.176271,-0.335977 -0.358236,-0.672131 -0.404366,-0.747028 -0.04613,-0.0749 -0.362915,-1.058695 -0.703966,-2.186229 -0.34105,-1.127534 -0.747162,-2.470241 -0.902468,-2.983796 -0.303485,-1.003533 -0.272109,-0.762909 -0.775391,-5.946463 -0.125128,-1.288763 -0.145451,-0.915999 0.292987,-5.374341 l 0.193378,-1.96638 0.36004,-1.184365 c 0.198022,-0.651394 0.605564,-1.994542 0.905648,-2.984781 0.300085,-0.99023 0.630125,-1.950986 0.733422,-2.135005 0.103298,-0.184019 0.367776,-0.675918 0.587728,-1.093119 0.21995,-0.417191 0.510671,-0.961074 0.646044,-1.208636 0.135374,-0.247564 0.375782,-0.703294 0.53424,-1.01274 0.202905,-0.396247 0.322775,-0.562632 0.405344,-0.562632 0.171718,0 0.215929,-0.07284 0.09702,-0.159748 -0.09537,-0.06975 -0.09466,-0.09019 0.0085,-0.247487 0.06179,-0.09431 0.137959,-0.171476 0.169258,-0.171476 0.03131,0 0.0569,-0.04454 0.0569,-0.09901 0,-0.1992732 0.259102,-0.5941805 0.909836,-1.3867034 0.366046,-0.4458034 1.243301,-1.5164138 1.949457,-2.379136 0.706155,-0.8627132 1.318105,-1.597516 1.359888,-1.6328775 0.04178,-0.035343 0.346548,-0.2860649 0.677258,-0.5571018 0.330709,-0.2710464 1.389902,-1.1391031 2.353761,-1.9290297 0.963859,-0.7899267 1.918728,-1.52256358 2.12193,-1.62807767 0.203202,-0.10552301 0.568779,-0.30083968 0.812395,-0.43403782 L 29.5852,-0.03831155 h 15.91484 15.914868 l 0.826962,0.43280028 c 0.736008,0.3852041 1.019639,0.59085122 2.578813,1.86983677 0.963517,0.7903672 2.013847,1.6496119 2.334066,1.9094269 0.574471,0.4661186 0.863101,0.7532055 1.325716,1.3186038 0.129859,0.1587067 0.709164,0.8672697 1.287344,1.5745845 0.578182,0.7073059 1.285334,1.5696343 1.571451,1.9162802 0.391146,0.4738904 0.674446,0.920585 1.141868,1.8004251 0.880969,1.658274 1.204716,2.263694 1.777622,3.324245 0.474178,0.877787 0.53828,1.047154 1.095106,2.893535 0.325293,1.078655 0.603593,1.993201 0.618443,2.032331 0.02152,0.05672 -1.976703,1.552722 -3.432282,2.569661 -0.306556,0.214179 -0.295464,0.173914 -0.414968,1.506599 -0.0716,0.798429 -0.09119,0.880956 -0.244278,1.028817 -0.09154,0.08841 -0.685097,0.638185 -1.319014,1.221715 -1.376429,1.267022 -1.280232,1.173312 -1.652496,1.609844 -1.705828,2.000325 -2.261969,2.692695 -2.464606,3.068365 -0.100241,0.185849 -0.190851,0.329322 -0.201344,0.318821 -0.0106,-0.0106 0.05191,-0.726786 0.138698,-1.591768 l 0.157776,-1.572691 -0.19677,-2.025478 C 66.154218,23.224136 66.134494,23.103126 65.855676,22.177647 65.695856,21.64717 65.424757,20.745496 65.253229,20.173927 65.0817,19.60237 64.838175,18.944086 64.71206,18.711083 c -0.275741,-0.509441 -0.54525,-1.011295 -1.004465,-1.870409 -0.189037,-0.353658 -0.431948,-0.805395 -0.539806,-1.00387 -0.230118,-0.423472 -2.661535,-3.417009 -2.999979,-3.693559 -1.414931,-1.156147 -2.243741,-1.84968 -2.243741,-1.877533 0,-0.01866 0.05064,-0.07125 0.112526,-0.116989 0.08919,-0.0659 0.09613,-0.09977 0.03345,-0.1633291 -0.06315,-0.064024 -0.110849,-0.063188 -0.236882,0.00468 C 57.688847,10.06732 57.646141,10.053545 57.333532,9.828793 57.145528,9.6936348 56.98234,9.5767213 56.97089,9.5689781 56.95945,9.5615081 56.99407,9.4698291 57.04782,9.3658716 57.14395,9.1799768 57.1284,8.9432051 57.01011,8.7915199 56.97316,8.7441819 56.97667,8.6665899 57.01941,8.5867636 57.126891,8.3859448 57.10058,8.140726 56.95604,7.9961928 56.785159,7.825317 56.297683,7.8391269 56.26417,8.0157908 c -0.01682,0.088775 0.02385,0.112733 0.192349,0.1135104 0.11753,5.444e-4 0.252709,0.025688 0.300394,0.055971 0.124797,0.079127 0.06554,0.2860091 -0.103152,0.3602116 -0.185288,0.081469 -0.185102,0.2417866 3.77e-4,0.3231599 0.103777,0.045553 0.144676,0.1180022 0.144676,0.256375 0,0.3807886 -0.02831,0.3697171 -2.507735,-0.9803774 C 53.834324,7.8959948 53.323998,7.6943036 52.529547,7.4484949 51.914378,7.2581564 51.402086,7.0934588 51.39112,7.0824899 c -0.043,-0.043032 2.799874,-0.5071239 2.863881,-0.4675616 0.0375,0.023156 0.06818,0.098312 0.06818,0.1669563 0,0.094107 0.0435,0.123974 0.176829,0.1214231 0.23165,-0.00468 1.064362,-0.154225 1.149355,-0.2067528 0.06098,-0.03769 -0.104112,-1.2255582 -0.181015,-1.3024699 -0.03432,-0.03431 -1.202321,0.1502798 -1.288737,0.2036876 -0.0338,0.020903 -0.04813,0.1076144 -0.03187,0.1927199 0.01626,0.085128 0.0035,0.1709126 -0.0285,0.1906564 -0.05107,0.0316 -2.566769,0.4947775 -3.625222,0.6675194 -0.265124,0.043311 -0.459721,0.041906 -0.610859,-0.00468 -0.121989,-0.03731 -1.161197,-0.1623787 -2.309355,-0.2780084 L 45.486254,6.1557345 43.426406,6.3643534 41.366558,6.5729723 39.351016,7.1869522 c -1.108549,0.3376915 -2.048949,0.6398439 -2.08978,0.6714556 -0.04082,0.031599 -0.392527,0.2250343 -0.781547,0.4298475 -0.38902,0.204803 -0.831625,0.4407884 -0.983564,0.5244026 -0.151942,0.083622 -0.585973,0.3170476 -0.964516,0.5187298 -0.378542,0.2016911 -0.847403,0.4955928 -1.041912,0.6531283 -1.585245,1.283908 -2.739076,2.247344 -2.890844,2.413842 -0.230861,0.253272 -1.002807,1.182649 -1.889933,2.275366 -0.709131,0.873476 -0.692095,0.844806 -2.338246,3.935326 -0.160117,0.300605 -0.385945,0.864843 -0.501841,1.253871 -0.115896,0.38902 -0.362145,1.199205 -0.547221,1.800426 -0.455631,1.480095 -0.422818,1.299019 -0.639605,3.529657 l -0.193056,1.986441 0.197461,2.032369 c 0.174659,1.797669 0.222475,2.11379 0.414082,2.7375 0.119142,0.38782 0.210819,0.708544 0.20373,0.712715 -0.0071,0.0038 -0.360118,0.275828 -0.784503,0.603686 -0.424386,0.327858 -1.095879,0.84626 -1.492207,1.152013 -0.396327,0.305741 -0.721706,0.584841 -0.723065,0.620202 -0.0012,0.03535 0.06434,0.147796 0.146001,0.249851 l 0.148471,0.185537 1.431299,-1.107827 c 0.787214,-0.609311 1.440818,-1.097901 1.452454,-1.085761 0.01163,0.01209 0.157226,0.470572 0.323536,1.01874 0.166308,0.548167 0.369917,1.112403 0.452461,1.253869 0.08255,0.141458 0.318227,0.576265 0.523735,0.966222 1.246967,2.366189 1.150077,2.215357 2.448602,3.811878 0.681471,0.837861 1.419323,1.692428 1.639673,1.89904 l 0.400635,0.375661 -0.30543,-0.03684 c -0.240516,-0.02897 -0.30543,-0.01707 -0.30543,0.05615 0,0.194678 0.530951,0.312427 0.690289,0.153081 0.112854,-0.112853 0.594376,0.289347 0.549922,0.459332 -0.02782,0.106354 -0.0016,0.12808 0.15462,0.12808 0.380516,0 0.549499,0.3434 0.212369,0.431562 -0.172604,0.0451 -0.162777,0.230116 0.01638,0.308724 0.195371,0.08569 0.230546,0.383854 0.05628,0.477115 -0.08685,0.0465 -0.18224,0.0481 -0.295503,0.0047 -0.132484,-0.05035 -0.175238,-0.04275 -0.20565,0.03647 -0.05906,0.153907 0.07193,0.237549 0.371993,0.237549 0.205318,0 0.301866,-0.0358 0.389897,-0.144494 0.125714,-0.155248 0.161109,-0.609797 0.0527,-0.676801 -0.07864,-0.04856 -0.07979,-0.101011 -0.0048,-0.219399 0.04521,-0.07144 0.166595,2.15e-4 0.569173,0.335995 0.559351,0.46654 0.726659,0.566786 2.811478,1.68444 1.001713,0.537002 1.592923,0.811966 2.02548,0.942005 0.591104,0.177711 0.622998,0.197154 0.986195,0.601108 0.206436,0.2296 0.401749,0.417453 0.434031,0.417453 0.125203,0 0.04874,-0.177325 -0.166358,-0.385803 -0.12378,-0.119971 -0.225053,-0.239828 -0.225053,-0.26635 0,-0.05588 0.640923,0.122989 0.745377,0.208047 0.03862,0.0314 0.08445,0.04293 0.101836,0.02559 0.01739,-0.01734 0.347483,0.06816 0.733544,0.190038 0.623928,0.197021 0.918022,0.243145 2.646566,0.415044 1.713327,0.170388 1.961432,0.209032 2.085829,0.324933 0.185495,0.172807 0.386722,0.166348 0.610338,-0.0196 0.125063,-0.104001 0.297099,-0.16273 0.551494,-0.188257 0.358764,-0.03599 0.369729,-0.03244 0.369729,0.119003 0,0.119822 0.03422,0.156112 0.147212,0.156112 0.116843,0 0.146689,-0.03497 0.144677,-0.169582 -0.0029,-0.197295 -0.124665,-0.169535 1.367634,-0.311977 0.629115,-0.0601 1.271399,-0.158492 1.477398,-0.226451 0.200439,-0.06609 0.372675,-0.111991 0.382748,-0.101915 0.01015,0.01004 -0.180972,0.195429 -0.424544,0.411905 -0.435504,0.387051 -0.444762,0.391494 -0.557243,0.267201 -0.06291,-0.06956 -0.146063,-0.125012 -0.184789,-0.123343 -0.03873,0.0019 -0.283682,0.202609 -0.544343,0.446523 l -0.473934,0.443479 0.436553,0.485834 c 0.240103,0.267222 0.463968,0.485844 0.497477,0.485844 0.118402,0 0.9462,-0.786468 0.9462,-0.898957 0,-0.06281 -0.04434,-0.150907 -0.09852,-0.195878 -0.08548,-0.07096 -0.05358,-0.121696 0.241128,-0.383526 0.186809,-0.165964 0.513265,-0.440394 0.725458,-0.609845 0.212194,-0.16945 0.501547,-0.417847 0.643008,-0.552001 0.216459,-0.205264 0.384534,-0.281753 1.060966,-0.482854 0.542204,-0.1612 1.049625,-0.370045 1.559298,-0.641785 0.415544,-0.221546 0.755518,-0.383798 0.755497,-0.360539 -2e-5,0.02326 -0.225251,0.331637 -0.500512,0.685284 -0.275261,0.353659 -0.873186,1.134914 -1.328724,1.736133 -0.455537,0.601211 -1.008059,1.324596 -1.227829,1.607518 -0.301697,0.388393 -0.667536,1.049959 -1.493427,2.700639 -1.148999,2.296459 -1.191055,2.361362 -2.30528,3.557331 l -0.135261,0.145051 -0.211382,-0.24369 c -0.583279,-0.672431 -0.848636,-0.931187 -0.901113,-0.878707 -0.03305,0.033 0.157257,0.299593 0.453621,0.635325 0.280808,0.318118 0.510343,0.592867 0.510076,0.610549 -2.64e-4,0.01772 -0.05247,0.09972 -0.115989,0.182304 l -0.115507,0.150156 -0.539641,-0.616331 c -0.521292,-0.595388 -0.641106,-0.697135 -0.641106,-0.544456 0,0.07359 0.167907,0.279738 0.71688,0.880113 0.171564,0.187629 0.311935,0.364636 0.311935,0.393351 0,0.113483 -1.67227,1.919177 -1.812024,1.956601 -0.182079,0.04875 -0.003,0.06168 -2.028817,-0.146792 z M 25.814883,44.383572 c 2.84502,-1.442128 3.070328,-1.544999 3.14882,-1.437655 0.0465,0.06356 0.09393,0.1438 0.105417,0.178253 0.01149,0.03441 0.302616,-0.07885 0.646963,-0.251678 l 0.626084,-0.314303 -0.302488,-0.593354 c -0.16637,-0.326349 -0.333483,-0.59237 -0.371365,-0.59115 -0.03788,9.36e-4 -0.300359,0.124188 -0.583281,0.273277 -0.503069,0.265092 -0.514062,0.276033 -0.498768,0.496128 l 0.01564,0.225053 -2.89822,1.446768 c -1.594023,0.795719 -2.98252,1.496857 -3.085552,1.558075 l -0.18733,0.111295 0.107904,0.226282 c 0.05935,0.124451 0.131304,0.226271 0.159902,0.226271 0.02861,0 1.430923,-0.698972 3.116276,-1.553266 z M 58.240825,9.4374449 c 0.07329,-0.093181 0.134548,-0.2161646 0.13611,-0.2732868 0.0016,-0.057087 0.05991,0.00468 0.129644,0.1363116 0.07648,0.1448589 0.19018,0.2560739 0.286512,0.2802525 0.440026,0.1104364 0.700878,-0.2029013 0.700878,-0.8419209 0,-0.6389348 -0.260856,-0.9523551 -0.70075,-0.8419477 -0.191461,0.048096 -0.342791,0.3182488 -0.396108,0.7072412 L 58.357982,8.8895585 58.22264,8.7634674 C 58.1482,8.6941004 58.014383,8.621494 57.925265,8.6020871 c -0.08911,-0.019408 -0.188698,-0.041627 -0.22129,-0.049401 -0.03259,-0.00747 0.04707,-0.1318298 0.177038,-0.2756771 0.195666,-0.2165784 0.220913,-0.2743275 0.14683,-0.3358087 -0.135012,-0.1120481 -0.442797,0.178929 -0.616586,0.5829102 -0.265484,0.6171398 -0.07159,1.0827706 0.450885,1.0827706 0.188537,0 0.276298,-0.039273 0.378681,-0.1694224 z m 1.740663,-2.0067943 0.182884,-0.1828753 0.117599,0.1554441 c 0.07944,0.1050044 0.204711,0.1668826 0.385992,0.1906943 0.228739,0.030005 0.292863,0.01082 0.434031,-0.1303943 0.184137,-0.1841413 0.217482,-0.4618161 0.07831,-0.6521446 -0.0741,-0.1013235 -0.07257,-0.1451411 0.01015,-0.2891769 0.133146,-0.2319911 0.05834,-0.4893967 -0.177713,-0.6114668 -0.241117,-0.1246857 -0.387053,-0.123326 -0.57072,0.00558 -0.22312,0.1562796 -0.285828,0.3823167 -0.168827,0.6085701 0.08996,0.173951 0.08859,0.2000972 -0.0163,0.3116769 -0.112097,0.1192671 -0.116788,0.1187239 -0.225201,-0.026346 -0.09691,-0.1296827 -0.09891,-0.1579672 -0.01607,-0.226713 0.147518,-0.1224359 0.115396,-0.433709 -0.06319,-0.6122822 -0.417955,-0.4179595 -1.105447,0.1114849 -0.793462,0.6110541 0.06329,0.1013347 0.05739,0.1463793 -0.03216,0.2453225 -0.127702,0.14111 -0.137657,0.2686367 -0.03804,0.4872864 0.152515,0.3347301 0.614066,0.3947289 0.892748,0.1160424 z M 46.489143,58.674944 c 0.02695,-0.07266 1.283353,-1.485411 1.321046,-1.485411 0.03444,0 0.07435,0.04237 0.621243,0.65909 0.243039,0.274076 0.467279,0.498331 0.49831,0.498331 0.139415,0 0.02003,-0.1837 -0.463774,-0.713652 -0.286107,-0.313392 -0.510356,-0.597368 -0.498332,-0.631061 0.01202,-0.03365 0.398022,-0.484156 0.857773,-1.001029 l 0.835911,-0.939776 1.125267,-2.231369 c 0.855536,-1.696504 1.22608,-2.362383 1.545847,-2.777933 0.37076,-0.481813 1.205194,-1.570704 2.562293,-3.343642 1.06867,-1.396134 1.049488,-1.376868 1.757137,-1.764679 0.363696,-0.199309 0.911608,-0.571014 1.217584,-0.826 0.305974,-0.254988 0.776174,-0.646473 1.044888,-0.869951 l 0.488571,-0.406335 v 0.447678 c 0,0.423706 0.04471,0.525742 0.230313,0.525742 0.01479,0 0.02689,-0.254743 0.02689,-0.566092 0,-0.555929 0.0038,-0.569785 0.212039,-0.771618 0.116621,-0.113033 0.261298,-0.205515 0.321504,-0.205515 0.0602,0 0.115413,-0.05063 0.122682,-0.112526 0.0073,-0.06187 0.02897,0.278105 0.04823,0.755539 0.02877,0.713184 0.05222,0.868056 0.131461,0.868056 0.07715,0 0.102885,-0.128482 0.128602,-0.641972 l 0.03216,-0.641982 0.568955,0.661304 c 0.312925,0.363717 0.60228,0.65025 0.643008,0.636731 0.0492,-0.01632 0.08014,-0.291407 0.09221,-0.819522 0.01983,-0.868075 0.0028,-0.97915 -0.142066,-0.923584 -0.07461,0.0286 -0.10081,0.175413 -0.11496,0.643912 l -0.01834,0.606836 -0.568064,-0.645432 c -0.312435,-0.354989 -0.594555,-0.629063 -0.626934,-0.609058 -0.170179,0.105183 0.02203,-0.161781 0.762578,-1.059173 0.450025,-0.545325 0.86163,-1.014988 0.914678,-1.043694 0.05305,-0.02869 0.259612,-0.09724 0.459033,-0.152304 0.360019,-0.09944 0.369896,-0.108864 1.397974,-1.335442 0.627579,-0.748752 1.162673,-1.323947 1.35854,-1.460361 1.012521,-0.705159 1.156914,-0.835629 1.156914,-1.045307 0,-0.129692 0.02221,-0.179922 0.06197,-0.140155 0.03409,0.03403 0.07026,0.379862 0.08038,0.768394 0.01504,0.576882 0.0361,0.706424 0.114856,0.706424 0.07828,0 0.102506,-0.139321 0.128602,-0.739463 l 0.03215,-0.73946 0.225053,-0.01856 c 0.321326,-0.02643 0.42048,-0.06891 0.342696,-0.146726 -0.05781,-0.05783 -0.382112,-0.10216 -0.865532,-0.118395 -0.16708,-0.0056 -0.169751,-0.01332 -0.214992,-0.616717 l -0.04581,-0.611035 0.587415,-0.578532 c 0.323078,-0.318193 0.608994,-0.578525 0.635371,-0.578525 0.0701,0 1.148932,-0.971395 1.267573,-1.141342 0.05555,-0.0796 0.130816,-0.144683 0.167257,-0.144683 0.09939,0 1.255639,-1.044426 1.293542,-1.168437 0.01807,-0.05916 0.144657,-0.166236 0.281315,-0.238047 0.353997,-0.186034 1.289418,-1.066288 1.195074,-1.1246 -0.04373,-0.02699 -0.190633,0.05597 -0.350217,0.19781 -0.151186,0.134398 -0.342204,0.301289 -0.424483,0.370879 l -0.149598,0.126514 -0.119684,-0.15867 -0.119683,-0.15867 0.430035,-0.399247 c 0.349004,-0.324023 0.403783,-0.39983 0.290716,-0.402312 -0.07662,-0.0019 -0.148964,0.01866 -0.160753,0.04519 -0.01178,0.02654 -0.261075,0.261906 -0.553969,0.523072 -0.292894,0.261164 -0.517082,0.490297 -0.498192,0.509187 0.05259,0.05259 -0.166461,0.269836 -0.272096,0.269836 -0.116145,0 -1.309803,1.027438 -1.269471,1.092698 0.04029,0.06515 -0.192502,0.268478 -0.246087,0.21489 -0.02366,-0.02362 -0.142267,0.05588 -0.263583,0.176689 -0.121315,0.120833 -0.38033,0.349907 -0.575586,0.509055 -0.195257,0.159139 -0.356416,0.334195 -0.358134,0.389021 -0.004,0.129053 -0.13045,0.253964 -0.257111,0.254067 -0.104558,7.5e-5 -0.258952,0.122446 -1.073437,0.85076 -0.119206,0.1066 -0.156375,0.111748 -0.274719,0.03806 -0.1558,-0.09696 -0.148106,-0.18805 0.07633,-0.903794 0.121448,-0.387294 0.177986,-0.468433 0.53771,-0.771608 0.383809,-0.32348 0.502948,-0.503234 0.329019,-0.49641 -0.0442,0.0019 -0.195194,0.115996 -0.335527,0.253901 -0.140333,0.137913 -0.266192,0.239705 -0.279687,0.226207 -0.05265,-0.05259 0.143927,-0.537978 0.404054,-0.997665 0.150095,-0.265244 0.366574,-0.652933 0.481065,-0.861542 0.114492,-0.208609 0.575551,-0.81626 1.024575,-1.350319 0.449026,-0.534067 1.023041,-1.21698 1.27559,-1.517595 0.252549,-0.300604 0.871694,-0.922712 1.375876,-1.382465 0.504183,-0.459753 1.146691,-1.053998 1.427795,-1.320545 l 0.511099,-0.484633 0.103833,-1.026437 c 0.05711,-0.564544 0.127746,-1.063419 0.156967,-1.108615 0.02922,-0.04519 0.376446,-0.313816 0.771611,-0.596927 1.591943,-1.140546 1.892025,-1.356431 2.271642,-1.634227 l 0.395746,-0.289608 0.202593,0.643509 c 0.234395,0.744534 0.302579,1.118441 0.361081,1.980057 l 0.04226,0.622379 -0.216456,0.188098 c -0.210992,0.183344 -1.016356,0.895328 -1.469544,1.29916 -0.124208,0.110671 -0.31264,0.275303 -0.418736,0.365827 -0.156852,0.133844 -0.180027,0.18564 -0.124007,0.277195 0.03789,0.06197 0.09694,0.12195 0.131232,0.133377 0.03428,0.01143 0.518395,-0.384707 1.075797,-0.88031 0.557403,-0.495603 1.040887,-0.901084 1.074409,-0.901084 0.03352,0 0.06095,0.126588 0.06095,0.281312 0,0.154721 0.01574,0.364504 0.03498,0.466183 0.03265,0.172527 -0.04039,0.251182 -1.094364,1.178497 -1.128343,0.992752 -1.129228,0.993737 -1.001081,1.121891 0.128148,0.128145 0.12839,0.128145 0.274526,-6.47e-4 0.252053,-0.222137 1.289809,-1.141353 1.516493,-1.343269 0.392492,-0.349598 0.368414,-0.397289 0.495158,0.980546 0.122754,1.334438 0.111884,1.612028 -0.16303,4.16353 -0.03429,0.318287 -0.121297,1.186353 -0.193341,1.92903 -0.126679,1.305901 -0.144758,1.395788 -0.549629,2.732784 -1.355331,4.475686 -1.378493,4.54506 -1.745588,5.228684 -0.78857,1.468519 -1.37255,2.563954 -1.788825,3.355483 -0.241787,0.459753 -0.528107,0.986386 -0.636266,1.170293 -0.275806,0.468969 -4.015398,5.017375 -4.354508,5.296325 -4.862457,3.999816 -4.435256,3.678501 -5.937387,4.465692 -0.389021,0.203856 -0.895391,0.47253 -1.125266,0.597038 -2.941748,1.593334 -2.8325,1.543244 -4.404612,2.019731 -0.813407,0.246541 -2.144436,0.650223 -2.957841,0.897072 -1.243964,0.377517 -1.616099,0.463475 -2.342375,0.541052 -0.86015,0.09188 -0.864025,0.09169 -1.01274,-0.04801 -0.144877,-0.136104 -0.161876,-0.128821 -0.175154,0.07509 -0.0042,0.06525 -0.08939,0.102338 -0.263486,0.114647 -0.141462,0.01004 -0.789501,0.07509 -1.440085,0.144682 -1.333414,0.142573 -1.505254,0.150569 -1.47489,0.06862 z M 67.091401,39.090932 c 0.05178,-0.07903 0.116844,-0.314377 0.144585,-0.522996 0.03768,-0.283384 0.06233,-0.344481 0.09748,-0.241554 0.05311,0.155558 0.375915,0.314152 0.523863,0.257377 0.169909,-0.06515 0.105863,0.105395 -0.130409,0.34735 -0.203383,0.208281 -0.21699,0.242659 -0.125967,0.318201 0.08723,0.07238 0.133308,0.05436 0.317223,-0.123861 0.118345,-0.11471 0.268902,-0.327698 0.334568,-0.473328 l 0.119393,-0.264765 0.04433,0.309897 c 0.08192,0.572578 0.551546,0.814854 0.887125,0.457652 0.120216,-0.127967 0.154974,-0.25028 0.178161,-0.626935 0.02548,-0.413929 0.01115,-0.493933 -0.12414,-0.693009 -0.118744,-0.174728 -0.203541,-0.229346 -0.379215,-0.244244 -0.264999,-0.02251 -0.410851,0.106399 -0.544495,0.481118 -0.06499,0.182239 -0.08825,0.207336 -0.09034,0.09752 -0.0038,-0.198353 -0.166331,-0.502258 -0.295059,-0.551654 -0.333666,-0.128033 -0.796905,0.0975 -0.803455,0.391166 -0.0018,0.08109 -0.03353,0.05812 -0.106688,-0.07743 -0.181053,-0.335452 -0.443996,-0.440619 -0.72528,-0.290086 -0.297017,0.15896 -0.397545,0.911396 -0.184297,1.379427 0.167236,0.367036 0.642763,0.405726 0.862621,0.07021 z m -23.956622,8.029211 c -1.492449,-0.149774 -1.749103,-0.202226 -3.118594,-0.63736 -0.141463,-0.04491 -0.67198,-0.2062 -1.178928,-0.358344 L 37.915532,45.847822 37.510261,45.410091 C 37.28736,45.169344 37.08726,44.97236 37.065591,44.97236 c -0.07865,0 -0.03692,0.179219 0.06056,0.260125 0.05497,0.04565 0.127987,0.135325 0.16224,0.199327 0.08398,0.156927 0.107447,0.167642 -1.494832,-0.68294 -1.167226,-0.619622 -1.498099,-0.83037 -2.220961,-1.414602 -0.800954,-0.647344 -0.847262,-0.697201 -0.811876,-0.874132 0.0721,-0.360529 -0.167824,-0.702824 -0.492647,-0.702824 -0.11572,0 -0.133785,-0.03234 -0.116754,-0.208976 0.01891,-0.19615 0.03691,-0.210194 0.293427,-0.228747 0.186069,-0.01351 0.273281,-0.0494 0.273281,-0.112526 0,-0.0703 -0.0916,-0.09272 -0.378311,-0.09272 -0.423319,0 -0.441293,0.02371 -0.430667,0.568549 0.0029,0.147054 -0.01144,0.267371 -0.0318,0.267371 -0.100565,-1.9e-5 -0.316638,-0.317799 -0.316638,-0.465668 0,-0.197032 -0.265373,-0.434554 -0.485513,-0.434554 -0.112884,0 -0.395991,-0.304898 -1.22912,-1.323731 -0.595351,-0.728053 -1.186976,-1.516546 -1.314725,-1.752201 -1.498216,-2.763759 -1.665106,-3.111736 -1.960177,-4.087051 -0.161585,-0.534095 -0.306564,-1.028948 -0.322176,-1.099682 -0.02176,-0.09861 0.07199,-0.203575 0.402074,-0.450105 0.23675,-0.176829 0.461701,-0.351071 0.499891,-0.387211 0.03819,-0.03618 0.271368,-0.215809 0.518174,-0.399276 l 0.448736,-0.333568 0.142993,0.134333 0.142992,0.134333 0.515342,-0.378069 c 0.283438,-0.207935 0.516294,-0.401479 0.517461,-0.430091 0.0026,-0.06112 -0.759779,-1.073246 -0.808327,-1.073246 -0.04842,0 -1.05428,0.771768 -1.05428,0.808921 0,0.01734 0.04342,0.09778 0.09648,0.178769 0.104626,0.159673 0.06827,0.21281 -0.361382,0.528302 -0.09265,0.06806 -0.401994,0.304534 -0.687439,0.525565 -0.285444,0.221031 -0.54349,0.401882 -0.573436,0.401882 -0.13266,0 -0.297201,-0.951418 -0.490989,-2.839049 l -0.208947,-2.035294 0.204156,-2.015662 c 0.197659,-1.95153 0.213723,-2.046365 0.504816,-2.980188 0.165365,-0.530477 0.373572,-1.210465 0.462685,-1.51107 0.314147,-1.059717 0.434773,-1.333471 1.302953,-2.957012 0.94471,-1.766648 0.907447,-1.711776 2.391693,-3.521913 1.019008,-1.242742 1.270813,-1.482553 3.050038,-2.904702 0.282924,-0.22615 0.61568,-0.504377 0.739459,-0.618291 0.123779,-0.113914 1.034623,-0.637238 2.024097,-1.1629527 C 37.513678,8.7125 37.961884,8.505136 38.600176,8.3118361 39.025321,8.1830814 39.864533,7.9274481 40.465088,7.7437753 41.531876,7.4175022 41.600689,7.40538 43.455079,7.2167759 45.271753,7.0320066 45.395895,7.0271223 46.349817,7.1029654 l 0.996664,0.079216 0.003,0.2455288 c 0.0017,0.1350355 0.02326,0.2657299 0.04794,0.2904139 0.0247,0.02465 0.49675,-0.035057 1.049026,-0.1328327 1.120394,-0.1983058 0.920619,-0.2156024 2.211476,0.1915387 0.265242,0.083622 0.971943,0.2984772 1.570448,0.4773683 0.652517,0.1950444 1.257497,0.4204624 1.511071,0.5630258 0.480463,0.270138 1.543811,0.8389774 2.046478,1.0947701 0.185669,0.094474 0.33758,0.2091547 0.33758,0.2548387 0,0.04763 0.07536,0.08315 0.176828,0.08333 0.09725,1.78e-4 0.261672,0.06825 0.365372,0.151188 l 0.188545,0.15086 -0.176678,0.301478 c -0.09717,0.165813 -0.26159,0.398187 -0.365372,0.516395 -0.103789,0.118198 -0.188695,0.232787 -0.188695,0.25465 0,0.02184 0.245951,0.03975 0.546557,0.03975 0.503691,0 0.546559,-0.01015 0.546559,-0.128604 0,-0.109544 -0.04286,-0.128596 -0.289355,-0.128596 -0.159145,0 -0.289354,-0.01519 -0.289354,-0.03375 0,-0.01856 0.09793,-0.176079 0.217638,-0.350096 0.180613,-0.262561 0.23398,-0.303313 0.313697,-0.239575 0.05282,0.04228 0.113062,0.192551 0.133846,0.334018 0.05235,0.35631 0.296824,0.56283 0.633472,0.535127 0.234981,-0.01931 0.304709,0.02222 1.040702,0.620738 0.696998,0.566777 0.934277,0.818849 2.037911,2.164958 l 1.249063,1.523501 0.913219,1.693092 c 0.502269,0.931206 0.956006,1.823309 1.008304,1.982457 0.0523,0.159138 0.286386,0.925929 0.520197,1.703967 0.233809,0.778039 0.455693,1.486958 0.493072,1.575372 0.03738,0.08841 0.160041,1.079114 0.272582,2.201558 l 0.204619,2.040806 -0.182315,1.913702 c -0.178304,1.87159 -0.189565,1.938235 -0.51174,3.028796 l -0.329424,1.115094 -0.406571,0.35917 c -0.223613,0.197547 -0.40657,0.397429 -0.40657,0.4442 0,0.135017 0.07719,0.09926 0.375237,-0.173885 0.153333,-0.14052 0.288756,-0.255484 0.300941,-0.255484 0.01218,0 -0.0075,0.09404 -0.04385,0.208976 -0.03631,0.114936 -0.08113,0.274505 -0.09964,0.354604 -0.0185,0.08005 -0.05913,0.161379 -0.09027,0.180626 -0.03114,0.01922 -0.05663,0.108105 -0.05663,0.197453 0,0.08934 -0.09404,0.351764 -0.208976,0.583135 -0.16205,0.3262 -0.342545,0.54334 -0.803763,0.966925 -0.32713,0.300445 -0.594783,0.59702 -0.594783,0.659062 0,0.14352 -0.149462,0.269801 -0.266277,0.22497 -0.120757,-0.0463 -1.296855,0.980677 -1.253227,1.094366 0.03952,0.102974 -0.129599,0.256 -0.282909,0.256 -0.173473,0 -1.280732,0.994738 -1.23626,1.11063 0.04487,0.116925 -0.151308,0.277413 -0.279133,0.228363 -0.05394,-0.02072 -0.323367,0.178178 -0.669436,0.494113 -0.491565,0.448766 -0.594081,0.516376 -0.677733,0.446946 -0.08264,-0.06862 -0.137077,-0.0465 -0.337055,0.136536 -0.73936,0.676865 -0.781806,0.724884 -0.713468,0.807223 0.0508,0.06123 0.0096,0.133217 -0.162536,0.284387 -0.126805,0.111329 -0.230552,0.228363 -0.230552,0.260059 0,0.116914 0.16046,0.05203 0.367521,-0.148694 l 0.212889,-0.206342 0.141413,0.141412 0.141413,0.141409 -0.238716,0.244469 c -0.131292,0.134454 -0.238715,0.264943 -0.238715,0.289983 0,0.105451 0.169045,0.0315 0.367261,-0.160582 0.196412,-0.190366 0.220615,-0.1981 0.317283,-0.101435 0.05757,0.05757 0.08648,0.14307 0.06425,0.19002 -0.02222,0.04697 -0.309684,0.432583 -0.638805,0.856965 l -0.5984,0.771618 -1.342414,0.722849 c -0.738329,0.39757 -1.350248,0.715023 -1.359821,0.705451 -0.03569,-0.03572 0.07956,-0.147832 0.329257,-0.320368 0.141462,-0.09774 0.466029,-0.372549 0.721259,-0.610679 l 0.464056,-0.432951 -0.248079,-0.273661 -0.248077,-0.273663 -0.311154,0.273663 c -0.680172,0.59821 -0.921078,0.838142 -0.89078,0.887163 0.04607,0.07452 -0.165326,0.267183 -0.255308,0.232656 -0.04198,-0.01613 -0.175701,0.05812 -0.297138,0.165054 -0.121439,0.10689 -0.387176,0.339764 -0.590528,0.517502 -0.203352,0.177729 -0.36973,0.360154 -0.36973,0.405388 0,0.04528 -0.166018,0.128501 -0.36973,0.185257 -0.203351,0.05663 -0.436197,0.131042 -0.517433,0.165307 -0.402546,0.169826 -0.2981,0.03563 0.485283,-0.623466 0.27265,-0.229394 0.338851,-0.343037 0.199835,-0.343037 -0.07776,0 -0.518213,0.362968 -1.051822,0.866745 -0.423054,0.399407 -0.960404,0.563626 -2.295555,0.701569 -1.348273,0.139301 -1.260285,0.148084 -1.260285,-0.125829 0,-0.126139 -0.01558,-0.24492 -0.03462,-0.26395 -0.0293,-0.02935 -0.384198,0.329461 -0.495848,0.501265 -0.01944,0.0299 -0.124985,0.07228 -0.234543,0.09423 -0.182602,0.03656 -0.202835,0.02326 -0.242869,-0.158998 -0.04407,-0.200669 -0.3009,-0.457607 -0.4574,-0.457607 -0.19832,0 -0.407061,0.160273 -0.512094,0.393193 -0.135116,0.299629 0.01522,0.293667 -2.086448,0.08277 z m 3.633001,-8.05787 c 1.029509,-0.105417 1.278217,-0.155839 2.250532,-0.456323 0.902065,-0.278761 1.272927,-0.433972 2.12193,-0.888043 0.599991,-0.320892 1.226765,-0.712697 1.503728,-0.939982 0.261203,-0.214356 0.670691,-0.548879 0.909973,-0.743389 0.373777,-0.30384 1.322677,-1.379503 1.871867,-2.121927 0.09156,-0.123776 0.362682,-0.601212 0.60249,-1.060964 0.239807,-0.459753 0.457906,-0.86485 0.484665,-0.900213 0.02675,-0.03535 0.208872,-0.585142 0.404699,-1.221724 0.293159,-0.952974 0.373726,-1.320722 0.456133,-2.08198 0.125334,-1.157815 0.125556,-1.673639 0.0012,-2.876951 -0.08286,-0.802067 -0.15504,-1.140745 -0.44645,-2.09488 -0.475184,-1.555827 -1.114988,-2.753035 -2.165718,-4.052514 -0.616497,-0.76244 -0.878038,-1.022968 -1.693603,-1.687027 -0.82472,-0.671522 -1.118284,-0.865272 -2.025477,-1.336773 -0.887127,-0.461084 -1.240072,-0.60421 -2.154082,-0.873531 -0.951298,-0.280309 -1.241187,-0.336427 -2.234456,-0.432547 -1.075469,-0.104079 -1.207211,-0.104168 -2.282681,-0.0019 -1.024579,0.09779 -1.259749,0.144542 -2.298758,0.456996 -0.995703,0.299434 -1.301953,0.425367 -2.191896,0.901339 -1.306064,0.698521 -2.612929,1.733113 -3.370132,2.667985 -0.265241,0.327482 -0.597998,0.734043 -0.739461,0.903484 -0.141462,0.169432 -0.343602,0.476281 -0.4492,0.681873 -0.105596,0.20559 -0.346275,0.656109 -0.534834,1.001142 -0.18856,0.345033 -0.424651,0.894803 -0.524647,1.221714 -0.1,0.326911 -0.257617,0.843363 -0.350268,1.147672 -0.283078,0.929743 -0.447561,2.988896 -0.306356,3.835249 0.03096,0.18567 0.03662,0.33758 0.01254,0.33758 -0.02408,0 -0.147645,-0.23872 -0.274588,-0.530486 -0.321693,-0.739386 -0.374755,-0.721827 -0.799222,0.264475 -0.188165,0.437215 -0.342119,0.82061 -0.342119,0.851988 0,0.0314 0.05348,0.057 0.118848,0.057 0.07895,0 0.152766,-0.08634 0.219882,-0.257208 0.100777,-0.256526 0.101948,-0.257199 0.45372,-0.257199 h 0.35269 l 0.199041,0.352681 c 0.109477,0.193966 0.199041,0.41526 0.199041,0.491749 0,0.173652 0.620691,2.193974 0.767816,2.499211 0.606944,1.259223 1.035726,1.950095 1.748172,2.816754 1.514087,1.841806 3.473438,3.173094 5.650227,3.839047 1.210324,0.370289 1.339021,0.396669 2.475585,0.507546 1.176165,0.114731 1.04928,0.115817 2.379134,-0.02034 z M 44.420797,38.34771 C 43.370358,38.242014 43.195643,38.205119 41.945212,37.824902 40.935644,37.517921 39.457839,36.739544 38.747256,36.140499 38.525664,35.953697 38.17075,35.661473 37.958557,35.491131 37.746363,35.32079 37.24707,34.787425 36.849015,34.305885 c -0.991964,-1.200021 -1.607754,-2.349887 -2.070119,-3.865522 -0.396809,-1.300754 -0.400469,-1.35032 -0.09968,-1.35032 0.182186,0 0.225052,-0.02446 0.225052,-0.128604 0,-0.107168 -0.04286,-0.128605 -0.257202,-0.128605 -0.181076,0 -0.257204,-0.02747 -0.257204,-0.09262 0,-0.051 0.02936,-0.110805 0.06522,-0.132964 0.123515,-0.07632 0.320585,-0.541286 0.320585,-0.756364 0,-0.245922 -0.196144,-0.496944 -0.38831,-0.496944 -0.156864,0 -0.158186,-0.06665 -0.02708,-1.365806 0.144738,-1.434252 0.50779,-2.633364 1.208662,-3.992055 0.413177,-0.80098 0.646211,-1.163656 1.094863,-1.703976 0.313481,-0.377526 0.614343,-0.752971 0.668582,-0.834308 0.05424,-0.08138 0.515962,-0.490587 1.02605,-0.909447 0.761425,-0.625247 1.102136,-0.853675 1.903454,-1.276163 0.628758,-0.331505 1.21624,-0.587495 1.651181,-0.719483 0.371337,-0.112687 0.805368,-0.248501 0.964513,-0.301797 0.159144,-0.05335 0.810191,-0.151769 1.446772,-0.218809 1.086927,-0.114468 1.22203,-0.115864 2.21838,-0.02307 3.047978,0.283965 5.780359,1.747542 7.694141,4.121306 0.959017,1.189521 1.571202,2.344768 2.015459,3.803367 0.267216,0.877319 0.322822,1.161518 0.420729,2.150258 0.106611,1.076676 0.106856,1.198605 0.0044,2.217382 -0.09356,0.929565 -0.153116,1.224198 -0.432351,2.139026 -0.221341,0.725156 -0.432632,1.264483 -0.667559,1.703968 -0.189044,0.353657 -0.421275,0.79256 -0.516068,0.975342 -0.0948,0.182783 -0.220632,0.385327 -0.279642,0.450107 -0.05902,0.06478 -0.373278,0.444443 -0.698367,0.843701 -0.794382,0.975614 -1.993066,1.981894 -2.997554,2.516402 -1.102784,0.586812 -1.397738,0.711937 -2.356863,0.999859 -0.976175,0.293031 -1.110758,0.315417 -3.022142,0.502671 -0.12378,0.01209 -0.702487,-0.02597 -1.28602,-0.08475 z m 18.197156,0.992471 c 0,-0.0209 0.09404,-0.149098 0.208978,-0.284874 0.114938,-0.135767 0.295661,-0.41526 0.401608,-0.621076 0.537769,-1.044707 1.340888,-2.5094 1.430778,-2.609393 0.09692,-0.107815 0.107704,-0.106922 0.224456,0.01837 l 0.122646,0.131643 0.365065,-0.317331 c 0.601956,-0.523259 0.676224,-0.617973 0.560108,-0.714347 -0.123221,-0.10226 -0.125901,-0.220571 -0.0071,-0.319064 0.09611,-0.07979 0.110604,-0.0056 0.190719,0.976628 0.02904,0.35603 0.02248,0.375604 -0.17418,0.519236 -1.123709,0.820723 -1.222955,0.9142 -2.198454,2.070553 -0.88189,1.045382 -1.124498,1.293413 -1.124498,1.14963 z m -78.83291,-20.66741 V -0.0382716 h 5.180556 c 4.9385765,0 5.1788581,0.0056328 5.1442161,0.11449534 -0.030739,0.09686077 -1.0351587,1.99457886 -1.7601634,3.32560426 -0.7068646,1.2977259 -0.8437903,1.6604771 -1.6868615,4.4689173 -0.461815,1.5383973 -0.8650212,2.8694227 -0.8960132,2.9578367 -0.160156,0.456885 -1.42208,4.707365 -1.479498,4.983316 -0.0368,0.176829 -0.152901,1.218509 -0.258018,2.314834 -0.365081,3.807641 -0.774227,7.976224 -0.83307,8.487727 -0.06085,0.528873 -0.05356,0.615967 0.608148,7.270091 0.213724,2.149226 0.225397,1.980009 -0.145167,2.104283 -0.435383,0.146014 -3.344749,1.18743 -3.633001,1.300445 l -0.241128,0.09453 z m 5.153273,13.942843 c -0.150163,-1.532361 -0.332838,-3.388426 -0.405943,-4.124587 l -0.132917,-1.338469 0.136077,-1.330023 c 0.07484,-0.731502 0.222225,-2.212544 0.327513,-3.291189 0.644268,-6.600229 0.636019,-6.52941 0.833358,-7.15372 0.188822,-0.597357 1.0824753,-3.539137 1.2940077,-4.259689 0.2270725,-0.773492 1.5465011,-5.0910419 1.6769223,-5.4873737 0.1137845,-0.3457826 0.6531685,-1.4033247 1.7106569,-3.3540011 0.1246183,-0.2298718 0.3050367,-0.5626329 0.4009295,-0.7394617 0.095892,-0.1768288 0.3255311,-0.60361978 0.510308,-0.94843692 l 0.3359588,-0.62693518 h 5.5576393 c 3.056702,0 5.5576402,0.01209324 5.5576402,0.02681214 0,0.0147189 -0.158006,0.21959695 -0.3511236,0.45519685 C 6.1816813,0.6970746 5.7563095,1.4020274 5.3482393,2.1691075 4.9687501,2.8824602 4.5263463,3.7126613 4.365119,4.0139978 4.2038919,4.3153436 3.8838983,4.9155132 3.6540228,5.3477231 3.4241473,5.779933 3.19767,6.1337878 3.1507412,6.1340778 3.1038105,6.1343589 2.7501192,6.0422018 2.3647577,5.9292747 1.9793961,5.8163454 1.6424707,5.7455829 1.6160345,5.7720203 1.5411012,5.8469198 1.6971271,5.9163282 2.3624111,6.1038626 2.7014599,6.1994417 3.010437,6.296095 3.0490267,6.3186407 3.0938761,6.3448863 2.9939769,6.5916186 2.7720987,7.0026603 1.8495007,8.7118297 1.662487,9.1051241 1.4726365,9.7354436 0.98212828,11.363999 0.87140257,11.725279 0.71844038,12.196226 l -0.16226785,0.499605 -0.53827878,0.368461 c -0.2960537,0.202648 -0.53943847,0.404629 -0.54085414,0.448832 -0.004127,0.130095 0.0778766,0.09659 0.51183149,-0.208976 0.22600551,-0.159147 0.4328189,-0.289356 0.45958419,-0.289356 0.0267653,0 2.1193e-4,0.130733 -0.059005,0.290519 -0.0723274,0.195146 -0.18741882,0.345792 -0.35057621,0.458853 -0.30501799,0.211384 -0.34290366,0.39876 -0.04999585,0.24729 0.10609633,-0.05485 0.19290293,-0.08494 0.19290293,-0.06694 0,0.04387 -0.23626547,0.839858 -0.6783206,2.285304 -0.20008983,0.654262 -0.403788,1.348715 -0.45266198,1.543224 -0.0488715,0.194511 -0.23482928,1.858297 -0.41323298,3.6973 -0.1784039,1.839003 -0.3366517,3.378751 -0.3516637,3.42165 -0.018554,0.05306 -0.2252079,-0.01387 -0.6456165,-0.208975 -0.3400781,-0.157845 -0.6517541,-0.286984 -0.6926146,-0.286984 -0.1130534,0 -2.7432222,1.75897 -2.7402241,1.832572 0.00141,0.03535 0.4564915,0.361457 1.0112242,0.72463 0.5547327,0.363183 1.0719209,0.710409 1.1493076,0.771617 0.125418,0.09919 0.1506787,0.219551 0.2325278,1.107942 0.1038555,1.127244 0.1528273,0.895928 -0.4696547,2.218386 -0.1498189,0.318286 -0.397789,0.847573 -0.5510447,1.176199 l -0.2786465,0.597488 -0.5336064,0.247178 c -2.9003058,1.343485 -4.825588,2.159474 -5.42404,2.298869 -0.128678,0.03 -0.13937,-0.04275 -0.405191,-2.755341 z m 10.53614836,-7.258335 c 0,-0.138475 0.19352354,-2.143536 0.51479479,-5.333664 L 0.18028898,18.126732 0.66917724,16.519213 C 0.93806538,15.635078 1.1947878,14.781478 1.2396719,14.622339 1.2845587,14.463192 1.4319767,13.976711 1.5672768,13.541276 l 0.2459985,-0.791708 0.502418,-0.35406 c 0.4652074,-0.327839 0.5996965,-0.473806 0.4365504,-0.473806 -0.036224,0 -0.2312181,0.113651 -0.4333141,0.252558 -0.202096,0.138908 -0.3735258,0.246485 -0.3809554,0.23905 -0.00741,-0.0075 0.018093,-0.137997 0.056709,-0.290152 0.051177,-0.201606 0.1285482,-0.314405 0.2852745,-0.415878 0.2521793,-0.163273 0.2804521,-0.262881 0.062812,-0.221276 -0.1397324,0.02671 -0.1490586,0.01416 -0.1017154,-0.137173 0.028668,-0.09159 0.1582909,-0.528282 0.2880541,-0.970356 C 2.7249993,9.7111255 2.8962781,9.3278998 3.5383528,8.1203598 l 0.7733125,-1.4543425 0.292257,0.087939 c 0.1607415,0.048375 0.3455296,0.087939 0.4106401,0.087939 0.2297742,0 0.1141417,-0.1064544 -0.2352729,-0.2165974 C 4.5847797,6.5639833 4.4256347,6.4928025 4.4256347,6.4671058 c 0,-0.025688 0.044306,-0.1099568 0.09845,-0.1872633 0.076199,-0.1087968 0.130695,-0.1286789 0.2411282,-0.088028 0.3354498,0.1235145 0.4963329,0.1393298 0.4963329,0.048844 0,-0.050996 -0.1241664,-0.1240856 -0.2893536,-0.1703325 C 4.677771,5.9879139 4.6397024,5.9507519 4.738178,5.8420511 4.7927677,5.7817701 4.9822264,5.4311967 5.7788917,3.9162366 6.8291427,1.9190422 7.1131948,1.4478611 7.7081025,0.71609618 l 0.6077373,-0.7475522 5.2336962,-0.0037478 5.233695,-0.0037478 -0.282526,0.21026903 c -0.155389,0.11564844 -0.405501,0.29319915 -0.555805,0.39455076 -0.150304,0.10135139 -0.273279,0.2092848 -0.273279,0.23983745 0,0.13065757 0.20825,0.028406 0.803762,-0.39455088 0.592318,-0.42071607 0.655914,-0.45010636 0.973915,-0.45010636 0.275997,0 0.333231,0.01818781 0.303205,0.09644918 -0.04819,0.12558571 0.09608,0.12477013 0.235424,-9.375e-4 0.09081,-0.08212402 0.321739,-0.09500473 1.446163,-0.08034271 L 22.772201,-0.00634097 21.99174,0.7065618 21.211277,1.4194739 19.589735,2.0529902 17.96819,2.6865065 17.418025,2.5413741 C 17.115434,2.4615946 16.845756,2.374642 16.818737,2.3482517 16.791722,2.3218155 16.979799,2.1581669 17.236692,1.984488 17.493587,1.8108184 17.724711,1.6390615 17.750304,1.6027995 17.824345,1.4978944 17.608893,1.483898 17.49001,1.5859245 17.430748,1.6367369 17.186001,1.8136683 16.94612,1.9790504 L 16.509974,2.2797403 16.114733,2.1584108 15.719492,2.0370718 15.505357,2.2319285 c -0.223123,0.203041 -0.302401,0.2605089 -0.839628,0.6086355 -0.233778,0.1514978 -0.316547,0.2424809 -0.295119,0.3244172 0.0521,0.1992443 -0.585221,0.710306 -2.091414,1.6770613 -1.031278,0.6619412 -1.452028,0.9001195 -1.487807,0.8422199 -0.05979,-0.09675 -0.06096,-0.096115 -0.8192497,0.4414911 -0.3792304,0.268871 -0.5719196,0.4436183 -0.5325648,0.4829743 0.039356,0.039374 0.199891,-0.035347 0.4436995,-0.2063223 0.210118,-0.147382 0.399136,-0.2679808 0.420038,-0.2679808 0.02091,0 0.03801,0.099472 0.03801,0.2210601 0,0.1883409 -0.04282,0.2518086 -0.289355,0.4288626 -0.1591439,0.114289 -0.2893534,0.2480028 -0.2893534,0.2971364 0,0.094151 0.041325,0.078937 0.3314304,-0.1216863 0.09387,-0.064961 0.187913,-0.1180569 0.208977,-0.1180569 0.02107,0 0.0383,0.173613 0.0383,0.3858034 0,0.2121916 -0.0217,0.3854945 -0.04822,0.3851108 C 10.266568,7.61227 10.101909,7.5685962 9.927186,7.5155921 9.7398161,7.4587845 9.5858582,7.4428453 9.5518536,7.4768764 c -0.073826,0.073873 -0.029034,0.098033 0.4197327,0.2268446 0.3433667,0.098557 0.3697297,0.1197445 0.3697297,0.2972301 0,0.2208159 -0.04533,0.2296745 -0.4881128,0.095356 C 9.4851139,7.9846428 9.3768023,7.9762717 9.3768023,8.0594653 c 0,0.033183 0.2097816,0.1272166 0.4661815,0.2089748 l 0.4661822,0.1486669 0.01776,0.9422774 0.01776,0.9422686 0.737776,0.244844 c 0.814905,0.270447 0.778105,0.226937 0.696352,0.823376 -0.03802,0.277392 -0.07106,0.322871 -0.40188,0.553323 -0.198251,0.138101 -0.528636,0.369548 -0.73419,0.514334 L 10.269002,12.700762 9.2081548,11.92532 C 8.5549786,11.447876 8.088411,11.149878 7.9940454,11.149878 c -0.2425166,0 -2.2843187,0.315099 -2.3650287,0.364982 -0.040021,0.02475 -0.1318483,0.0945 -0.2040506,0.155024 -0.1997579,0.167443 -1.6861691,1.382708 -2.1406797,1.750185 -0.2210343,0.178713 -0.4018811,0.350611 -0.4018811,0.382007 0,0.0314 0.4267976,0.484156 0.9484389,1.006148 0.7528021,0.7533 0.9873081,1.030852 1.1368811,1.345566 L 5.1561689,16.550291 4.9998757,16.71796 C 4.9139177,16.8102 4.6773651,17.030125 4.4742106,17.20671 L 4.1048379,17.527771 3.2742467,17.007475 C 2.8174224,16.721316 2.4033802,16.47172 2.3541537,16.452829 c -0.065493,-0.02512 -0.2850682,0.419019 -0.8184899,1.655593 -0.4009436,0.929463 -0.80078367,1.849072 -0.88853246,2.043582 -0.087749,0.19451 -0.21432832,0.480069 -0.28128649,0.634557 l -0.12174113,0.280908 0.49931407,0.545609 c 0.27462281,0.30008 0.60058891,0.659812 0.72436811,0.799404 l 0.2250532,0.253787 0.4370996,-0.06319 c 0.4438195,-0.06412 0.8167678,-0.0029 0.8167678,0.133808 0,0.03554 -0.079574,0.208872 -0.1768279,0.385194 -0.1613011,0.292431 -0.2332861,0.348962 -0.8198362,0.643791 -0.3536548,0.177776 -0.649087,0.328384 -0.6565166,0.334703 -0.00741,0.0066 0.072196,0.268177 0.1769385,0.581926 0.1047455,0.313749 0.1831616,0.574857 0.1742592,0.580238 -0.019622,0.01191 -2.05374358,0.23035 -2.12204047,0.227922 -0.026521,-9.37e-4 -0.0482246,-0.06104 -0.0482246,-0.133629 z M 105.29099,21.629464 l -0.8265,-0.04622 -0.62769,-0.625323 -0.62768,-0.625322 -0.0419,-0.427785 c -0.42657,-4.354548 -0.38353,-4.05893 -0.77846,-5.346794 -0.20063,-0.654262 -0.50471,-1.652535 -0.67572,-2.218384 -0.17102,-0.565849 -0.41692,-1.376034 -0.54647,-1.800426 C 100.64649,8.8354479 99.83014,6.1351564 99.679467,5.6201945 99.59153,5.3195803 99.448818,4.9182225 99.362362,4.7282786 99.275925,4.5383437 99.205164,4.3776865 99.205164,4.3712835 c 0,-0.00657 0.260416,-0.2385342 0.57871,-0.5158335 0.503316,-0.4384909 0.696416,-0.6846469 0.530476,-0.6762564 -0.0265,9.375e-4 -0.30864,0.2318969 -0.626924,0.5123367 L 99.108716,4.2014295 98.980112,3.9302239 C 98.90933,3.7810604 98.83301,3.6445434 98.810407,3.6268625 98.787814,3.6091439 98.534439,3.1522127 98.24739,2.6113858 97.96034,2.0705587 97.624383,1.4412143 97.500813,1.2128424 97.377242,0.98447062 97.174361,0.60954142 97.049966,0.37966957 l -0.226179,-0.4179598 h 5.209493 5.20949 V 10.828564 21.695416 l -0.56263,-0.0098 c -0.30944,-0.0056 -0.93456,-0.03065 -1.38915,-0.05606 z m -27.714464,-0.04331 c -0.02241,-0.02241 -0.04077,-0.173472 -0.04077,-0.335677 0,-0.162203 -0.06025,-0.497375 -0.133895,-0.744824 -0.314264,-1.055958 -0.399322,-1.384885 -0.366587,-1.417622 0.01911,-0.01912 0.739956,-0.309774 1.601859,-0.645899 1.173829,-0.457766 1.839115,-0.675864 2.650989,-0.869032 0.59613,-0.141843 1.095173,-0.246597 1.108982,-0.232788 0.03356,0.03356 -0.512243,0.625659 -0.576677,0.625659 -0.04584,0 -0.721499,0.588987 -1.327809,1.157422 -0.132028,0.123776 -0.375287,0.336783 -0.540575,0.473347 -0.279671,0.231063 -0.30848,0.241113 -0.415035,0.144683 -0.06299,-0.057 -0.137884,-0.103622 -0.166469,-0.103622 -0.0286,0 -0.26605,0.191594 -0.527693,0.42577 -0.463109,0.414472 -0.473112,0.429762 -0.377132,0.576245 0.09483,0.144729 0.08681,0.1615 -0.209481,0.43866 -0.43588,0.407712 -0.632686,0.554701 -0.679715,0.507677 z M 101.35925,18.43644 c -0.21219,-0.19269 -1.1526,-0.883299 -2.089784,-1.534684 l -1.703976,-1.184347 -0.980584,-9.36e-4 c -0.539326,-5.45e-4 -0.980593,-0.02006 -0.980593,-0.04341 0,-0.02335 0.116858,-0.547868 0.259685,-1.165661 0.142825,-0.617787 0.251331,-1.130985 0.241122,-1.140454 -0.01026,-0.0095 -0.510453,0.06534 -1.111663,0.166179 -0.601211,0.100855 -1.684046,0.237006 -2.406283,0.302546 l -1.313175,0.119163 -0.112526,-0.132419 c -0.450126,-0.529718 -0.63693,-0.78749 -0.63693,-0.878932 0,-0.05821 0.195316,-0.275743 0.434039,-0.483378 0.710792,-0.618254 0.741335,-0.650222 0.694227,-0.726448 -0.04172,-0.06742 -0.156448,0.02005 -0.984332,0.750692 -0.09019,0.07959 -0.186065,0.144673 -0.21312,0.144673 -0.04921,0 -0.155633,-0.38259 -0.113756,-0.408998 0.145762,-0.09197 0.95456,-0.840645 0.95456,-0.883638 0,-0.13377 -0.175844,-0.03441 -0.589051,0.332817 l -0.439382,0.390491 -0.0645,-0.169628 c -0.105741,-0.278096 -0.08427,-0.318033 0.401686,-0.746399 0.789046,-0.695578 0.775302,-0.681075 0.693441,-0.731662 -0.04435,-0.02737 -0.200267,0.06253 -0.376533,0.217188 -0.644897,0.565857 -0.851791,0.730846 -0.880506,0.702131 -0.01641,-0.0164 -0.04519,-0.114543 -0.06394,-0.218059 -0.03103,-0.171148 0.01303,-0.228401 0.485375,-0.631324 0.347948,-0.296789 0.498153,-0.464439 0.454887,-0.5077147 -0.04331,-0.043311 -0.190103,0.044159 -0.444669,0.2646537 -0.20903,0.181085 -0.416684,0.373392 -0.461458,0.427334 -0.101792,0.122643 -0.194257,0.126449 -0.194257,0.0085 0,-0.04959 -0.112011,-0.447416 -0.248903,-0.8841442 C 89.363731,9.1378 89.1394,8.6590074 88.307558,7.0996371 87.289735,5.1915941 86.92433,4.5099566 86.601292,3.9167054 86.505002,3.7398766 86.157794,3.0888293 85.829711,2.4699378 84.960107,0.82952273 84.95738,0.82491031 84.607978,0.40505666 84.431646,0.1931752 84.287376,0.00685908 84.287376,-0.00899386 c 0,-0.01584323 2.500288,-0.02878082 5.556196,-0.02878082 h 5.556191 l 0.287049,0.53048655 c 0.157883,0.29176462 0.381492,0.70409023 0.496915,0.91628103 0.115433,0.2122002 0.470891,0.8753412 0.789908,1.4736642 l 0.580043,1.0878503 -0.179107,0.1428168 c -0.238732,0.1903568 -0.157405,0.3364266 0.08944,0.1606572 l 0.178821,-0.1273292 0.08437,0.1576947 c 0.07228,0.1351012 0.0691,0.1746351 -0.02259,0.2759119 -0.11742,0.1297482 -0.141466,0.2688342 -0.0465,0.2688342 0.03327,0 0.07837,-0.028967 0.100241,-0.064314 0.07266,-0.1175797 0.203416,-0.066468 0.284329,0.1111167 0.0751,0.1648013 0.06403,0.1902259 -0.182575,0.4202762 -0.248865,0.2321395 -0.326611,0.3688158 -0.209781,0.3688158 0.02897,0 0.171645,-0.101792 0.316993,-0.2262055 0.276127,-0.2363502 0.294342,-0.2341941 0.36036,0.042564 0.03281,0.1377448 0.0038,0.1987274 -0.151283,0.3215102 -0.105506,0.083343 -0.192091,0.187685 -0.192408,0.2318975 -8.07e-4,0.110916 0.0464,0.1014239 0.26303,-0.052781 0.142648,-0.10158 0.194332,-0.1130241 0.217816,-0.048185 0.01698,0.046691 0.236237,0.7649333 0.487343,1.5960159 0.251107,0.8310925 0.572232,1.8872361 0.713625,2.3469899 0.141392,0.4597433 0.285867,0.9371773 0.321051,1.0609643 0.03516,0.123777 0.174667,0.586745 0.309967,1.028807 0.1353,0.442072 0.30885,1.020783 0.38569,1.286027 0.0769,0.265233 0.16515,0.554589 0.19626,0.643002 0.0311,0.08841 0.18862,0.600911 0.35002,1.138888 0.25621,0.854004 0.31012,1.142253 0.42471,2.271334 0.0722,0.711263 0.12232,1.331082 0.11138,1.377374 -0.012,0.05072 -0.17302,-0.05484 -0.40568,-0.26617 z m -24.530796,0.201354 c 0,-0.0195 -0.147267,-0.518664 -0.32726,-1.109197 C 76.321202,16.938063 76.060543,16.073522 75.921952,15.607385 75.711044,14.898016 75.543309,14.520678 74.892954,13.292551 74.465597,12.485525 74.050342,11.709493 73.970167,11.568035 73.889991,11.426568 73.657508,10.99254 73.453537,10.60352 72.602507,8.9804106 72.795823,9.2568952 70.913406,6.9705232 70.432974,6.3869839 69.722686,5.5211955 69.33499,5.0465366 68.624901,4.1771673 68.587731,4.1429866 66.250955,2.2104507 65.968031,1.9764727 65.259114,1.398643 64.675582,0.92638394 64.092052,0.45412472 63.587128,0.04388042 63.553531,0.01472459 c -0.0336,-0.02915561 3.063611,-0.05296841 6.882684,-0.05296841 h 6.943771 L 77.235333,1.0709446 C 77.155783,1.681005 77.023916,2.657576 76.942316,3.2411055 L 76.79395,4.302069 76.586149,4.3222244 c -0.114291,0.011065 -0.208843,0.040031 -0.210115,0.064312 -0.0012,0.024281 -0.03953,0.3262736 -0.08499,0.6710906 -0.04547,0.3448078 -0.08061,0.6274874 -0.07807,0.6281812 0.203546,0.055123 1.30341,0.1703705 1.332168,0.1396109 0.04034,-0.043122 0.183522,-1.0105357 0.183522,-1.2399292 0,-0.076686 -0.05801,-0.1207859 -0.176826,-0.1344544 -0.210813,-0.024281 -0.211241,0.017718 0.01657,-1.6278715 0.08323,-0.6012105 0.203342,-1.4909702 0.266915,-1.97725404 l 0.115588,-0.8841347 2.380545,9.375e-4 2.380532,9.375e-4 0.630742,0.78668288 c 0.356611,0.44477206 0.771092,1.05217936 0.953677,1.39754016 0.177617,0.3359766 0.38903,0.7265994 0.469822,0.8680662 0.505642,0.8854097 0.931759,1.7631508 0.873447,1.799187 -0.126007,0.0779 -0.069,0.2262914 0.08699,0.2262914 0.09075,0 0.166442,0.045843 0.185605,0.1125267 0.01781,0.061872 0.05325,0.1631594 0.07866,0.2250521 0.03197,0.077722 0.0165,0.1125267 -0.05016,0.1125267 -0.180653,0 -0.177147,0.1846198 0.0047,0.271994 0.131661,0.063099 0.173988,0.1301044 0.173988,0.2754329 0,0.187067 -0.0085,0.1919224 -0.308349,0.1878076 -0.272865,-0.00379 -0.306164,0.010596 -0.289355,0.124273 0.04378,0.2961515 0.788446,0.2179471 0.869313,-0.091307 0.0569,-0.2176381 1.784657,3.0681703 2.025151,3.8513931 0.509946,1.660843 0.492265,1.559866 0.266668,1.522685 -0.101357,-0.01669 -0.55188,-0.09113 -1.001151,-0.165419 l -0.816862,-0.135045 -0.854969,0.722578 c -0.470225,0.39742 -1.059296,0.891137 -1.309032,1.097141 l -0.454072,0.374554 -0.632803,1.592208 c -0.348044,0.875717 -0.6507,1.613089 -0.672582,1.638606 -0.02184,0.0255 -0.6648,0.190995 -1.428702,0.36772 -1.185163,0.274178 -1.618863,0.411211 -2.956451,0.934103 -1.482657,0.579601 -1.728291,0.661669 -1.728291,0.577465 z"
         id="path4" /></g><g
       id="g6"
       transform="matrix(0.7926631,0,0,0.7926631,-0.01536074,5.0917104)"><path
         style="fill:#2ca089;stroke-width:0.937488"
         d="M 12.594898,48.38925 C 8.5075461,46.409596 7.8767741,41.739091 10.863913,35.572311 11.99829,33.23045 13.708573,30.67318 15.46805,28.68807 l 1.045201,-1.179246 0.745059,0.435116 c 0.700659,0.409176 1.443353,1.455748 1.443353,2.033906 0,0.142564 -0.78155,1.288614 -1.736777,2.546787 -5.38337,7.090693 -5.896164,12.739916 -1.315237,14.489389 1.405638,0.536824 4.620478,0.353761 6.509837,-0.370674 0.7422,-0.284583 1.390636,-0.476242 1.440966,-0.42591 0.169053,0.169058 -2.609508,1.64005 -4.071411,2.155434 -0.796118,0.280674 -2.340444,0.564592 -3.431835,0.630947 -1.823087,0.110827 -2.107707,0.06085 -3.502308,-0.614569 z M 20.92494,31.168661 c -1.406923,-3.649158 -1.443071,-3.694129 -4.322253,-5.377022 -1.437619,-0.840289 -2.613851,-1.583905 -2.613851,-1.652472 0,-0.313852 1.416514,-1.325794 1.860326,-1.32901 0.272848,-0.0019 1.333234,0.215829 2.356414,0.483997 1.023177,0.268177 1.983177,0.4895 2.133332,0.491843 0.25595,0.0038 5.364335,-5.022532 5.489853,-5.401866 0.03182,-0.09618 -1.028562,-0.761034 -2.356413,-1.477451 -2.981264,-1.608513 -7.332332,-4.047198 -7.498323,-4.202671 -0.265136,-0.248341 1.755888,-1.812021 2.341991,-1.812021 0.337599,0 1.706578,0.276192 3.042176,0.613763 1.335599,0.33757 3.879417,0.954071 5.652927,1.369997 1.773509,0.415926 3.406451,0.812707 3.628757,0.881725 0.261237,0.08109 1.25104,-0.616332 2.79856,-1.971939 2.667789,-2.3369489 4.483539,-3.3739878 5.907528,-3.3739878 0.759011,0 0.993055,0.1124229 1.157074,0.555817 0.490252,1.3252698 -0.482615,2.8983158 -3.705854,5.9920618 l -2.485037,2.385201 0.609346,6.600332 c 0.335141,3.630185 0.555135,6.74161 0.488876,6.914276 -0.06626,0.172667 -0.557278,0.664969 -1.091158,1.094001 L 33.348524,32.7333 32.969319,31.825737 c -0.208563,-0.499155 -1.112353,-2.818302 -2.008422,-5.153649 -0.896071,-2.335345 -1.716385,-4.335737 -1.82292,-4.44531 -0.106533,-0.109577 -1.506338,0.838039 -3.110675,2.105812 l -2.916974,2.305037 0.170183,2.625779 0.170184,2.625779 -0.868563,0.662485 -0.868564,0.662485 z"
         id="path1-4"
         sodipodi:nodetypes="csscsssssssccssscscscssssssssscssscsssscccccs" /><path
         style="fill:#55ddff;stroke-width:0.937488"
         d="M 25.470581,64.056422 C 20.080897,63.05468 15.492256,60.460034 12.68693,56.827919 10.62122,54.153389 9.3725186,51.267391 8.762475,47.757702 8.6275576,46.981491 8.6305387,46.98285 9.9429814,48.295295 c 1.5853606,1.585365 2.0981796,4.204368 3.6215126,5.960609 1.355386,1.562614 2.975586,2.921987 4.794855,3.939386 3.641605,2.036494 7.002364,2.777401 11.532134,2.542343 3.351299,-0.173913 5.809358,-0.746549 9.469531,-2.206075 3.507884,-1.398797 5.255939,-2.33754 8.977603,-4.821159 l 3.148588,-2.10118 0.768758,0.39754 c 0.77984,0.40327 1.364503,1.437075 1.141457,2.018326 -0.06731,0.175328 -0.939766,0.923303 -1.938855,1.662156 -5.126442,3.791179 -11.136344,6.648873 -16.562332,7.875342 -2.360262,0.533495 -7.705483,0.813551 -9.425652,0.493839 z m 42.54833,-6.777019 c -0.05476,-0.170529 -0.615619,-1.984351 -1.246324,-4.030707 -1.173508,-3.807519 -1.409876,-4.535488 -1.890686,-5.822986 -0.338189,-0.905594 -0.320695,-0.913019 -4.000043,1.699466 l -2.66339,1.891129 -0.0029,2.619818 c -0.0029,2.613872 -0.0047,2.621054 -0.737157,3.162556 -0.403748,0.298505 -0.787667,0.54273 -0.853142,0.54273 -0.06553,0 -0.409101,-0.976666 -0.763592,-2.170377 -0.999671,-3.366254 -1.21699,-3.673599 -3.85027,-5.445273 -1.296029,-0.871965 -2.389786,-1.680248 -2.430575,-1.796178 -0.04078,-0.11592 0.281002,-0.463681 0.715106,-0.772789 l 0.789279,-0.562014 2.028141,0.660488 c 1.115469,0.363275 2.273228,0.660497 2.572784,0.660497 0.622285,0 5.588859,-4.310491 5.690774,-4.93902 0.0435,-0.268543 -1.400259,-1.333987 -4.536372,-3.347608 -2.530128,-1.624523 -4.655993,-3.043898 -4.724138,-3.154156 -0.226497,-0.366473 1.921492,-1.724086 2.479372,-1.567046 1.156569,0.32556 7.854401,2.433134 9.875566,3.107497 1.191369,0.397495 2.300378,0.722719 2.464468,0.722719 0.164087,0 0.807812,-0.422695 1.430501,-0.939315 3.791564,-3.145748 6.610109,-4.492393 7.927241,-3.787487 0.636178,0.340476 0.649886,0.825523 0.06,2.122349 -0.522555,1.148779 -1.728416,2.453816 -4.002571,4.331782 -2.29122,1.892064 -2.510404,2.176704 -2.372557,3.081088 0.06478,0.424907 0.18733,3.36541 0.272378,6.534455 l 0.15462,5.761889 -0.949561,0.872087 c -1.026633,0.942889 -1.282877,1.043546 -1.436766,0.564406 z"
         id="path1-5"
         sodipodi:nodetypes="ssssasssscsccsscssscssssssscsscssssssssssscscc" /></g></g></svg>
